<svg xmlns="http://www.w3.org/2000/svg" width="40" height="44" fill="none"><path fill="#2B7FFF" d="M20.092.1c-1.575 0-3.046.717-4.3 1.891-1.254 1.175-2.327 2.81-3.222 4.792-.187.415-.366.847-.537 1.292a24.792 24.792 0 0 0-1.39-.18 20.9 20.9 0 0 0-1.582-.1c-1.54-.037-2.947.12-4.18.493-1.644.499-3 1.414-3.788 2.778-.787 1.364-.902 2.997-.511 4.67.39 1.673 1.27 3.42 2.54 5.186.265.37.55.741.85 1.113a24.69 24.69 0 0 0-.85 1.112C1.853 24.912.973 26.66.582 28.333c-.39 1.673-.275 3.306.512 4.67.788 1.363 2.145 2.279 3.789 2.777 1.644.499 3.597.61 5.76.394.454-.045.917-.106 1.389-.18.167.436.347.868.538 1.294.895 1.982 1.968 3.617 3.222 4.792 1.254 1.174 2.725 1.892 4.3 1.892 1.575 0 3.046-.718 4.3-1.892 1.253-1.175 2.326-2.81 3.22-4.792.193-.426.372-.858.54-1.294.47.074.933.135 1.386.18 2.164.216 4.118.105 5.761-.394 1.645-.498 3.001-1.414 3.789-2.778.787-1.364.901-2.996.511-4.67-.39-1.672-1.27-3.42-2.54-5.185a24.94 24.94 0 0 0-.849-1.112c.294-.363.578-.734.85-1.113 1.27-1.766 2.15-3.513 2.54-5.186.39-1.673.276-3.306-.511-4.67-.788-1.364-2.145-2.28-3.788-2.778-1.233-.373-2.64-.53-4.18-.493a20.9 20.9 0 0 0-1.582.1c-.453.045-.917.106-1.389.18a24.887 24.887 0 0 0-.537-1.292c-.895-1.982-1.968-3.618-3.222-4.792C23.137.816 21.666.099 20.09.099Zm0 1.751c1.05 0 2.08.462 3.102 1.419 1.02.957 1.996 2.405 2.822 4.234.134.299.262.6.383.904-2.008.447-4.134 1.132-6.308 2.047-2.173-.915-4.3-1.6-6.307-2.046.124-.31.252-.613.383-.905.826-1.83 1.802-3.278 2.823-4.235 1.021-.956 2.051-1.418 3.102-1.418ZM8.505 9.544a18.735 18.735 0 0 1 1.963.094c.32.032.646.073.978.12-.618 1.963-1.088 4.146-1.383 6.486-1.879 1.425-3.536 2.925-4.926 4.44-.204-.257-.401-.519-.593-.785-1.172-1.63-1.938-3.199-2.256-4.562-.318-1.362-.203-2.485.323-3.395.525-.91 1.44-1.57 2.779-1.977.879-.266 1.93-.41 3.115-.42Zm23.172 0c1.184.011 2.236.155 3.115.421 1.34.406 2.254 1.067 2.78 1.977.525.91.64 2.033.322 3.395-.318 1.363-1.084 2.932-2.256 4.562-.191.266-.39.528-.593.786-1.39-1.516-3.046-3.015-4.925-4.44-.294-2.34-.765-4.524-1.382-6.486.33-.048.657-.09.976-.121a18.78 18.78 0 0 1 1.963-.094Zm-4.68.529a34.027 34.027 0 0 1 1.14 4.753 47.596 47.596 0 0 0-5.826-3.364c1.624-.605 3.2-1.069 4.686-1.389Zm-13.81 0c1.485.32 3.06.785 4.684 1.39a47.666 47.666 0 0 0-5.824 3.362 34 34 0 0 1 1.14-4.752Zm6.904 2.293a44.814 44.814 0 0 1 4.315 2.193c1.444.833 2.8 1.721 4.058 2.642.169 1.55.26 3.168.26 4.835 0 1.665-.091 3.283-.26 4.832a44.898 44.898 0 0 1-4.057 2.641 44.844 44.844 0 0 1-4.316 2.193 44.823 44.823 0 0 1-4.316-2.193 44.825 44.825 0 0 1-4.056-2.64 44.827 44.827 0 0 1-.259-4.834c0-1.666.09-3.285.259-4.835a44.852 44.852 0 0 1 4.057-2.641 44.812 44.812 0 0 1 4.315-2.192Zm.119 2.636-5.016 3.096 5.016 3.095 5.015-3.095-5.015-3.096Zm-10.384 3.67a47.736 47.736 0 0 0 0 6.726 33.976 33.976 0 0 1-3.546-3.364 34.016 34.016 0 0 1 3.546-3.363Zm20.532 0a34.019 34.019 0 0 1 3.545 3.363 33.997 33.997 0 0 1-3.545 3.362 47.72 47.72 0 0 0 0-6.725Zm-16.294.787v6.112l5.268 3.251V22.71l-5.268-3.251Zm12.287.003-5.267 3.25v6.11l5.267-3.25v-6.11ZM5.137 23.385c1.39 1.516 3.047 3.015 4.926 4.44.294 2.34.765 4.523 1.382 6.485-.33.048-.657.088-.976.12-1.997.2-3.739.08-5.078-.327-1.34-.406-2.254-1.067-2.78-1.977-.524-.91-.64-2.032-.322-3.395s1.085-2.932 2.256-4.562c.191-.266.389-.527.592-.784Zm29.908 0c.207.262.405.524.592.784 1.171 1.63 1.938 3.199 2.256 4.562.318 1.362.203 2.485-.323 3.395-.525.91-1.44 1.571-2.779 1.977-1.339.406-3.08.527-5.078.327-.326-.033-.65-.073-.975-.12.618-1.963 1.088-4.147 1.382-6.487C32 26.4 33.655 24.9 35.045 23.385Zm-6.908 5.858a34.013 34.013 0 0 1-1.14 4.753 34.012 34.012 0 0 1-4.685-1.39 47.83 47.83 0 0 0 5.825-3.363Zm-16.09 0a47.658 47.658 0 0 0 5.823 3.363 33.985 33.985 0 0 1-4.685 1.39 33.99 33.99 0 0 1-1.139-4.752Zm8.096.08.064.04.064-.04h-.127Zm-.052 4.291c2.174.915 4.3 1.6 6.309 2.046-.121.305-.25.607-.384.907-.826 1.829-1.801 3.277-2.823 4.234-1.02.957-2.05 1.418-3.101 1.418-1.05 0-2.08-.461-3.102-1.418-1.021-.957-1.997-2.405-2.823-4.234-.134-.3-.262-.602-.384-.907 2.008-.446 4.135-1.131 6.308-2.046Z"/></svg>