<svg xmlns="http://www.w3.org/2000/svg" width="43" height="35" fill="none"><path fill="#2B7FFF" d="M13.108 11.573H-.184c-.409 0-.739.316-.739.708v4.251c0 .392.33.709.739.709h.738v16.295c0 .392.33.709.739.709H11.63c.408 0 .739-.317.739-.709V17.241h.738c.408 0 .738-.317.738-.709v-4.25c0-.393-.33-.71-.738-.71ZM4.985 25.034v-1.417h4.43V22.2h-4.43v-1.417h5.907v9.21H4.986v-3.542h1.477v-1.417H4.985Zm5.907-5.668H4.247c-.408 0-.738.317-.738.709v10.627c0 .392.33.709.738.709h6.646v1.417H2.031V17.24h8.861v2.125Zm1.478-3.542H.553V12.99H12.37v2.834ZM22.893 11.706v-5.18c0-.404-.33-.73-.739-.73h-.738V2.15h1.477V.69H14.77v1.46h5.169v3.646H19.2a.733.733 0 0 0-.738.73v5.18c-1.683.339-2.954 1.812-2.954 3.573V33.515c0 .404.33.73.739.73h8.861a.733.733 0 0 0 .738-.73V15.28c0-1.76-1.27-3.234-2.953-3.573Zm-2.954-4.45h1.477v4.376h-1.477V7.255ZM19.2 13.09h2.954c1.222 0 2.215.982 2.215 2.188v.73h-7.384v-.73c0-1.206.994-2.188 2.215-2.188Zm5.17 16.777h-7.385V28.41h2.954V26.95h-2.954v-9.482h7.384v12.4Zm-7.385 2.918v-1.459h7.384v1.459h-7.384ZM41.77 10.666H29.308a.703.703 0 0 0-.692.714v22.15c0 .396.31.715.692.715H41.77c.382 0 .692-.32.692-.714V11.38a.703.703 0 0 0-.692-.715Zm-.693 22.15H30V12.095h11.077v20.72Z"/><path fill="#2B7FFF" d="M10.154 25.176H8.308v.907h1.846v-.907ZM23.077 26.99h-1.846v1.814h1.846V26.99ZM20.77 25.176c1.781 0 3.23-1.423 3.23-3.174 0-1.75-1.449-3.174-3.23-3.174-1.782 0-3.231 1.424-3.231 3.174s1.449 3.174 3.23 3.174Zm0-4.761c.89 0 1.615.712 1.615 1.587s-.725 1.587-1.616 1.587c-.89 0-1.615-.712-1.615-1.587s.724-1.587 1.615-1.587ZM33.808 17.92h3.461c1.337 0 2.424-1.016 2.424-2.266s-1.087-2.268-2.424-2.268h-3.461c-1.336 0-2.423 1.018-2.423 2.268 0 1.25 1.087 2.267 2.423 2.267Zm4.5-2.266c0 .535-.466.971-1.039.971h-1.038v-1.943h1.038c.573 0 1.039.436 1.039.972Zm-4.5-.972h1.038v1.943h-1.038c-.573 0-1.039-.436-1.039-.971 0-.536.466-.972 1.039-.972ZM33.808 25.176h3.461c1.337 0 2.424-1.22 2.424-2.72 0-1.501-1.087-2.721-2.424-2.721h-3.461c-1.336 0-2.423 1.22-2.423 2.72 0 1.5 1.087 2.72 2.423 2.72Zm4.5-2.72c0 .642-.466 1.165-1.039 1.165h-1.038V21.29h1.038c.573 0 1.039.523 1.039 1.166Zm-4.5-1.167h1.038v2.332h-1.038c-.573 0-1.039-.523-1.039-1.166 0-.643.466-1.166 1.039-1.166ZM33.808 31.524h3.461c1.337 0 2.424-1.22 2.424-2.72 0-1.5-1.087-2.721-2.424-2.721h-3.461c-1.336 0-2.423 1.22-2.423 2.72 0 1.5 1.087 2.721 2.423 2.721Zm4.5-2.72c0 .643-.466 1.166-1.039 1.166h-1.038v-2.332h1.038c.573 0 1.039.523 1.039 1.166Zm-4.5-1.166h1.038v2.332h-1.038c-.573 0-1.039-.523-1.039-1.166 0-.643.466-1.166 1.039-1.166Z"/></svg>