<svg xmlns="http://www.w3.org/2000/svg" width="44" height="36" fill="none"><path fill="#2B7FFF" d="M42.531 8.49a2.532 2.532 0 0 0-1.325-.638 2.428 2.428 0 0 0-1.431.225l-9.469 4.62a.332.332 0 0 1-.4-.044.388.388 0 0 1-.087-.121L24.287 1.6A2.765 2.765 0 0 0 23.33.509 2.43 2.43 0 0 0 22 .108a2.43 2.43 0 0 0-1.33.401c-.403.263-.733.64-.958 1.092l-5.53 10.93a.388.388 0 0 1-.089.122.348.348 0 0 1-.124.074.332.332 0 0 1-.275-.03l-9.47-4.62a2.412 2.412 0 0 0-1.429-.233 2.513 2.513 0 0 0-1.325.635 2.91 2.91 0 0 0-.818 1.31 3.164 3.164 0 0 0-.065 1.588L5.37 33.714c.08.377.23.733.44 1.045.21.312.474.574.778.77.401.27.862.412 1.332.412.24-.002.48-.037.712-.103a45.837 45.837 0 0 1 26.719-.02c.34.108.698.139 1.05.09.353-.047.693-.173 1-.37a2.73 2.73 0 0 0 .785-.773c.212-.314.364-.671.446-1.051l4.763-22.337a3.118 3.118 0 0 0-.052-1.581 2.87 2.87 0 0 0-.81-1.307ZM41.22 10.8l-4.782 22.336a.477.477 0 0 1-.168.268.43.43 0 0 1-.3.042 47.873 47.873 0 0 0-27.938 0 .34.34 0 0 1-.295-.043.39.39 0 0 1-.112-.114.434.434 0 0 1-.062-.153L2.782 10.8a.475.475 0 0 1 .078-.353.402.402 0 0 1 .132-.117.365.365 0 0 1 .164-.045l.15.041 9.488 4.64a2.388 2.388 0 0 0 1.898.105c.622-.23 1.143-.709 1.458-1.342L21.68 2.797a.38.38 0 0 1 .131-.158.333.333 0 0 1 .375 0 .381.381 0 0 1 .132.158l5.53 10.931c.316.633.837 1.113 1.459 1.342.622.23 1.3.192 1.898-.104l9.488-4.64a.344.344 0 0 1 .393.06.415.415 0 0 1 .12.187.452.452 0 0 1 .012.226ZM29.125 26.473a1.304 1.304 0 0 1-.371.791c-.207.205-.476.32-.754.323h-.113a53.518 53.518 0 0 0-11.775 0 1.055 1.055 0 0 1-.823-.265 1.275 1.275 0 0 1-.414-.828 1.346 1.346 0 0 1 .254-.908 1.12 1.12 0 0 1 .758-.453 52.683 52.683 0 0 1 12.225 0c.294.036.563.196.752.446.188.25.282.57.26.894Z"/></svg>