<svg aria-hidden="true" style="position: absolute; width: 0; height: 0; overflow: hidden;" version="1.1" xmlns="http://www.w3.org/2000/svg" xmlns:xlink="http://www.w3.org/1999/xlink">
<defs>
<symbol id="icon-reason3" viewBox="0 0 39 32">
<path d="M37.805 7.547c-0.316-0.292-0.719-0.494-1.165-0.565l-0.013-0.002c-0.095-0.015-0.205-0.023-0.316-0.023-0.348 0-0.677 0.082-0.968 0.229l0.012-0.006-8.417 4.107c-0.043 0.027-0.096 0.042-0.152 0.042-0.079 0-0.151-0.031-0.204-0.081l0 0c-0.032-0.030-0.058-0.066-0.076-0.105l-0.001-0.002-4.917-9.717c-0.198-0.399-0.487-0.727-0.842-0.964l-0.009-0.006c-0.333-0.222-0.742-0.355-1.182-0.356h-0c-0.44 0.001-0.849 0.134-1.19 0.361l0.008-0.005c-0.358 0.234-0.652 0.569-0.852 0.971l-4.916 9.716c-0.020 0.042-0.047 0.078-0.079 0.108l-0 0c-0.031 0.028-0.067 0.051-0.108 0.065l-0.002 0.001c-0.028 0.010-0.060 0.015-0.093 0.015-0.056 0-0.108-0.016-0.153-0.043l0.001 0.001-8.418-4.107c-0.281-0.144-0.613-0.229-0.964-0.229-0.108 0-0.214 0.008-0.318 0.023l0.012-0.001c-0.459 0.071-0.862 0.273-1.179 0.566l0.002-0.001c-0.335 0.309-0.587 0.702-0.722 1.146l-0.005 0.018c-0.077 0.244-0.121 0.526-0.121 0.817 0 0.211 0.023 0.416 0.067 0.613l-0.003-0.019 4.252 19.855c0.071 0.335 0.204 0.652 0.391 0.929s0.421 0.51 0.692 0.684c0.356 0.24 0.766 0.366 1.184 0.366 0.213-0.002 0.427-0.033 0.633-0.092 3.561-1.128 7.657-1.778 11.904-1.778 4.226 0 8.302 0.643 12.135 1.838l-0.289-0.078c0.302 0.096 0.62 0.124 0.933 0.080 0.314-0.042 0.616-0.154 0.889-0.329 0.279-0.182 0.512-0.412 0.692-0.679l0.005-0.009c0.188-0.279 0.324-0.596 0.396-0.934l4.234-19.855c0.044-0.185 0.069-0.397 0.069-0.615 0-0.282-0.042-0.554-0.12-0.81l0.005 0.020c-0.137-0.461-0.387-0.854-0.718-1.16l-0.002-0.002zM36.64 9.6l-4.251 19.854c-0.022 0.097-0.076 0.179-0.148 0.238l-0.001 0.001c-0.053 0.029-0.116 0.047-0.183 0.047-0.030 0-0.059-0.003-0.086-0.010l0.003 0c-3.715-1.175-7.987-1.852-12.417-1.852s-8.702 0.677-12.718 1.933l0.301-0.081c-0.027 0.009-0.059 0.014-0.092 0.014-0.064 0-0.123-0.020-0.171-0.053l0.001 0.001c-0.040-0.027-0.073-0.061-0.099-0.1l-0.001-0.001c-0.026-0.039-0.045-0.085-0.055-0.134l-0-0.002-4.25-19.854c-0.004-0.022-0.006-0.047-0.006-0.073 0-0.090 0.028-0.174 0.077-0.242l-0.001 0.001c0.031-0.043 0.070-0.078 0.116-0.103l0.002-0.001c0.042-0.024 0.092-0.038 0.145-0.040h0.001l0.133 0.036 8.434 4.124c0.277 0.142 0.604 0.225 0.951 0.225 0.264 0 0.517-0.048 0.751-0.137l-0.015 0.005c0.553-0.204 1.016-0.63 1.296-1.193l4.916-9.717c0.026-0.058 0.066-0.105 0.115-0.14l0.001-0.001c0.047-0.032 0.104-0.051 0.167-0.051s0.12 0.019 0.168 0.052l-0.001-0.001c0.051 0.035 0.091 0.083 0.116 0.138l0.001 0.002 4.916 9.716c0.281 0.563 0.744 0.989 1.297 1.193s1.156 0.171 1.687-0.092l8.434-4.124c0.040-0.020 0.087-0.032 0.137-0.032 0.083 0 0.157 0.033 0.212 0.086l-0-0c0.049 0.044 0.086 0.1 0.106 0.164l0.001 0.003c0.012 0.036 0.019 0.078 0.019 0.121 0 0.028-0.003 0.056-0.008 0.082l0-0.003zM25.889 23.532c-0.028 0.276-0.148 0.52-0.33 0.703l0-0c-0.184 0.182-0.423 0.284-0.67 0.287h-0.1c-1.57-0.184-3.39-0.289-5.233-0.289s-3.663 0.105-5.452 0.309l0.219-0.020c-0.031 0.004-0.067 0.006-0.104 0.006-0.242 0-0.462-0.092-0.629-0.242l0.001 0.001c-0.204-0.185-0.34-0.443-0.368-0.731l-0-0.005c-0.003-0.030-0.004-0.066-0.004-0.102 0-0.265 0.086-0.51 0.232-0.709l-0.002 0.003c0.157-0.216 0.395-0.364 0.669-0.402l0.005-0.001c1.631-0.201 3.519-0.316 5.433-0.316s3.802 0.115 5.657 0.338l-0.224-0.022c0.261 0.032 0.5 0.174 0.668 0.396s0.251 0.507 0.231 0.795z"></path>
</symbol>
<symbol id="icon-reason2" viewBox="0 0 39 32">
<path d="M11.984 10.581h-12.153c-0.374 0-0.676 0.289-0.676 0.647v3.887c0 0.358 0.302 0.648 0.676 0.648h0.675v14.898c0 0.358 0.302 0.648 0.676 0.648h9.451c0.373 0 0.676-0.29 0.676-0.648v-14.898h0.675c0.373 0 0.675-0.29 0.675-0.648v-3.886c0-0.359-0.302-0.649-0.675-0.649zM4.558 22.888v-1.296h4.050v-1.296h-4.050v-1.296h5.401v8.421h-5.4v-3.238h1.35v-1.296h-1.351zM9.958 17.706h-6.075c-0.373 0-0.675 0.29-0.675 0.648v9.716c0 0.358 0.302 0.648 0.675 0.648h6.076v1.296h-8.102v-14.252h8.101v1.943zM11.31 14.468h-10.804v-2.591h10.804v2.591zM20.931 10.703v-4.736c0-0.369-0.302-0.667-0.676-0.667h-0.675v-3.333h1.35v-1.335h-7.427v1.335h4.726v3.333h-0.676c-0.001 0-0.003-0-0.005-0-0.369 0-0.669 0.298-0.67 0.667v4.736c-1.539 0.31-2.701 1.657-2.701 3.267v16.673c0 0.369 0.302 0.667 0.676 0.667h8.101c0.001 0 0.003 0 0.005 0 0.369 0 0.669-0.299 0.67-0.667v-16.672c0-1.609-1.161-2.957-2.7-3.267zM18.23 6.634h1.35v4.001h-1.35v-4.002zM17.554 11.968h2.701c1.117 0 2.025 0.898 2.025 2v0.667h-6.751v-0.667c0-1.103 0.909-2 2.025-2zM22.281 27.307h-6.752v-1.332h2.701v-1.335h-2.701v-8.669h6.751v11.337zM15.529 29.975v-1.334h6.751v1.334h-6.751zM38.19 9.752h-11.394c-0.351 0.006-0.633 0.291-0.633 0.643 0 0.004 0 0.007 0 0.011v-0.001 20.251c0 0.362 0.283 0.654 0.633 0.654h11.394c0.349 0 0.633-0.293 0.633-0.653v-20.252c0-0.003 0-0.007 0-0.011 0-0.351-0.282-0.637-0.632-0.643h-0.001zM37.556 30.003h-10.128v-18.945h10.128v18.944z"></path>
<path d="M9.284 23.018h-1.688v0.829h1.688v-0.829zM21.099 24.677h-1.688v1.659h1.688v-1.659zM18.99 23.018c1.628 0 2.953-1.301 2.953-2.902s-1.325-2.902-2.953-2.902c-1.629 0-2.954 1.302-2.954 2.902s1.325 2.902 2.953 2.902zM18.99 18.665c0.814 0 1.477 0.651 1.477 1.451s-0.663 1.451-1.477 1.451c-0.814 0-1.477-0.651-1.477-1.451s0.662-1.451 1.477-1.451zM30.91 16.384h3.164c1.222 0 2.216-0.929 2.216-2.072s-0.994-2.074-2.216-2.074h-3.164c-1.221 0-2.215 0.931-2.215 2.074s0.994 2.073 2.215 2.073zM35.024 14.312c0 0.489-0.426 0.888-0.95 0.888h-0.949v-1.776h0.949c0.524 0 0.95 0.399 0.95 0.889zM30.91 13.424h0.949v1.776h-0.949c-0.524 0-0.95-0.399-0.95-0.888s0.426-0.889 0.95-0.889zM30.91 23.018h3.164c1.222 0 2.216-1.115 2.216-2.487s-0.994-2.488-2.216-2.488h-3.164c-1.221 0-2.215 1.115-2.215 2.487s0.994 2.487 2.215 2.487zM35.024 20.531c0 0.587-0.426 1.065-0.95 1.065h-0.949v-2.131h0.949c0.524 0 0.95 0.478 0.95 1.066zM30.91 19.464h0.949v2.132h-0.949c-0.524 0-0.95-0.478-0.95-1.066s0.426-1.066 0.95-1.066zM30.91 28.822h3.164c1.222 0 2.216-1.115 2.216-2.487s-0.994-2.488-2.216-2.488h-3.164c-1.221 0-2.215 1.115-2.215 2.487s0.994 2.488 2.215 2.488zM35.024 26.335c0 0.588-0.426 1.066-0.95 1.066h-0.949v-2.132h0.949c0.524 0 0.95 0.478 0.95 1.066zM30.91 25.269h0.949v2.132h-0.949c-0.524 0-0.95-0.478-0.95-1.066s0.426-1.066 0.95-1.066z"></path>
</symbol>
<symbol id="icon-reason1" viewBox="0 0 29 32">
<path d="M14.612 0.073c-1.145 0-2.215 0.521-3.127 1.375s-1.692 2.044-2.343 3.485c-0.136 0.302-0.266 0.616-0.391 0.94-0.239-0.042-0.585-0.088-0.933-0.124l-0.078-0.007c-0.329-0.036-0.728-0.062-1.131-0.072l-0.020-0c-1.12-0.027-2.143 0.087-3.040 0.359-1.196 0.363-2.182 1.028-2.755 2.020s-0.656 2.18-0.372 3.396c0.284 1.217 0.924 2.487 1.847 3.772 0.193 0.269 0.4 0.539 0.618 0.809-0.184 0.225-0.387 0.488-0.582 0.757l-0.036 0.052c-0.923 1.284-1.563 2.555-1.847 3.772s-0.2 2.404 0.372 3.396c0.573 0.991 1.56 1.657 2.756 2.020s2.616 0.444 4.189 0.287c0.33-0.033 0.667-0.077 1.010-0.131 0.121 0.317 0.252 0.631 0.391 0.941 0.651 1.441 1.431 2.631 2.343 3.485s1.982 1.376 3.127 1.376 2.215-0.522 3.127-1.376c0.911-0.855 1.692-2.044 2.342-3.485 0.14-0.31 0.271-0.624 0.393-0.941 0.342 0.054 0.679 0.098 1.008 0.131 1.574 0.157 2.995 0.076 4.19-0.287 1.196-0.362 2.183-1.028 2.756-2.020s0.655-2.179 0.372-3.396c-0.284-1.216-0.924-2.487-1.847-3.771-0.232-0.321-0.434-0.584-0.644-0.842l0.026 0.033c0.214-0.264 0.42-0.534 0.618-0.809 0.924-1.284 1.564-2.555 1.847-3.772s0.201-2.404-0.372-3.396c-0.573-0.992-1.56-1.658-2.755-2.020-0.897-0.271-1.92-0.385-3.040-0.359-0.423 0.011-0.822 0.037-1.216 0.078l0.066-0.006c-0.329 0.033-0.667 0.077-1.010 0.131-0.165-0.437-0.297-0.747-0.437-1.053l0.046 0.113c-0.651-1.441-1.431-2.631-2.343-3.485s-1.982-1.376-3.128-1.376zM14.612 1.346c0.764 0 1.513 0.336 2.256 1.032 0.742 0.696 1.452 1.749 2.052 3.079 0.097 0.217 0.191 0.436 0.279 0.657-1.46 0.325-3.007 0.823-4.588 1.489-1.58-0.665-3.127-1.164-4.587-1.488 0.090-0.225 0.183-0.446 0.279-0.658 0.601-1.331 1.311-2.384 2.053-3.080s1.492-1.031 2.256-1.031zM6.185 6.941c0.019-0 0.041-0 0.063-0 0.481 0 0.955 0.025 1.423 0.073l-0.059-0.005c0.233 0.023 0.47 0.053 0.711 0.087-0.449 1.428-0.791 3.015-1.006 4.717-1.367 1.036-2.572 2.127-3.583 3.229-0.148-0.187-0.292-0.377-0.431-0.571-0.852-1.185-1.409-2.327-1.641-3.318s-0.148-1.807 0.235-2.469c0.382-0.662 1.047-1.142 2.021-1.438 0.639-0.193 1.404-0.298 2.265-0.305zM23.038 6.941c0.861 0.008 1.626 0.113 2.265 0.306 0.975 0.295 1.639 0.776 2.022 1.438s0.465 1.479 0.234 2.469c-0.231 0.991-0.788 2.132-1.641 3.318-0.139 0.193-0.284 0.384-0.431 0.572-1.011-1.103-2.215-2.193-3.582-3.229-0.214-1.702-0.556-3.29-1.005-4.717 0.24-0.035 0.478-0.065 0.71-0.088 0.41-0.044 0.885-0.069 1.366-0.069 0.022 0 0.043 0 0.065 0h-0.003zM19.634 7.326c0.318 0.953 0.606 2.118 0.809 3.311l0.020 0.146c-1.203-0.826-2.59-1.64-4.035-2.356l-0.202-0.091c1.181-0.44 2.327-0.777 3.408-1.010zM9.591 7.326c1.080 0.233 2.225 0.571 3.407 1.011-1.646 0.806-3.034 1.62-4.355 2.522l0.119-0.077c0.223-1.339 0.511-2.503 0.878-3.631l-0.049 0.175zM14.612 8.993c1.266 0.561 2.296 1.094 3.292 1.678l-0.153-0.083c1.050 0.606 2.036 1.252 2.951 1.921 0.123 1.127 0.189 2.304 0.189 3.516 0 1.211-0.066 2.388-0.189 3.514-0.836 0.619-1.799 1.254-2.796 1.837l-0.154 0.083c-0.843 0.501-1.873 1.034-2.933 1.512l-0.206 0.083c-1.266-0.561-2.296-1.094-3.292-1.678l0.154 0.083c-1.151-0.666-2.114-1.301-3.040-1.983l0.090 0.063c-0.12-1.050-0.188-2.267-0.188-3.5 0-0.006 0-0.011 0-0.017v0.001c0-1.212 0.065-2.389 0.188-3.516 0.836-0.619 1.799-1.254 2.796-1.837l0.154-0.083c0.843-0.501 1.873-1.034 2.933-1.511l0.206-0.083zM14.698 10.911l-3.648 2.252 3.648 2.251 3.647-2.251-3.647-2.252zM7.146 13.58c-0.055 0.732-0.086 1.585-0.086 2.446s0.031 1.714 0.093 2.559l-0.007-0.113c-0.937-0.772-1.779-1.572-2.562-2.428l-0.017-0.019c0.8-0.874 1.642-1.674 2.537-2.412l0.042-0.034zM22.079 13.58c0.937 0.772 1.779 1.572 2.561 2.427l0.017 0.019c-0.799 0.874-1.641 1.673-2.536 2.411l-0.042 0.034c0.055-0.732 0.086-1.585 0.086-2.445s-0.031-1.714-0.093-2.559l0.007 0.113zM10.228 14.152v4.445l3.831 2.364v-4.445l-3.831-2.364zM19.164 14.154l-3.831 2.364v4.444l3.831-2.364v-4.444zM3.736 17.007c1.011 1.103 2.216 2.193 3.583 3.229 0.214 1.702 0.556 3.289 1.005 4.716-0.24 0.035-0.478 0.064-0.71 0.087-1.452 0.145-2.719 0.058-3.693-0.238s-1.639-0.776-2.022-1.438c-0.381-0.662-0.465-1.478-0.234-2.469s0.789-2.132 1.641-3.318c0.139-0.193 0.283-0.383 0.431-0.57zM25.487 17.007c0.151 0.191 0.295 0.381 0.431 0.57 0.852 1.185 1.409 2.327 1.641 3.318s0.148 1.807-0.235 2.469c-0.382 0.662-1.047 1.143-2.021 1.438s-2.24 0.383-3.693 0.238c-0.237-0.024-0.473-0.053-0.709-0.087 0.449-1.428 0.791-3.016 1.005-4.718 1.367-1.035 2.571-2.126 3.582-3.228zM20.463 21.268c-0.223 1.339-0.511 2.503-0.878 3.632l0.049-0.175c-1.336-0.296-2.475-0.644-3.576-1.068l0.169 0.057c1.647-0.807 3.034-1.621 4.356-2.523l-0.12 0.077zM8.761 21.268c1.202 0.826 2.589 1.639 4.033 2.355l0.202 0.091c-0.932 0.367-2.071 0.715-3.242 0.979l-0.165 0.031c-0.318-0.953-0.606-2.117-0.808-3.31l-0.020-0.146zM14.649 21.326l0.047 0.029 0.047-0.029h-0.092zM14.612 24.447c1.581 0.665 3.127 1.164 4.588 1.488-0.088 0.222-0.182 0.441-0.279 0.66-0.601 1.33-1.31 2.383-2.053 3.079-0.742 0.696-1.491 1.031-2.255 1.031s-1.513-0.335-2.256-1.031c-0.743-0.696-1.452-1.749-2.053-3.079-0.097-0.218-0.191-0.438-0.279-0.66 1.46-0.324 3.007-0.823 4.588-1.488z"></path>
</symbol>
</defs>
</svg>
