<svg aria-hidden="true" style="position: absolute; width: 0; height: 0; overflow: hidden;" version="1.1" xmlns="http://www.w3.org/2000/svg" xmlns:xlink="http://www.w3.org/1999/xlink">
<defs>
<symbol id="icon-telephone-icon" viewBox="0 0 32 32">
<path d="M27.655 22.957l-0.173-0.216c-1.372-1.734-2.52-2.637-3.503-2.756-0.85-0.116-1.673 0.472-2.548 1.078l-0.935 0.584c-0.092 0.048-0.2 0.093-0.312 0.128l-0.014 0.004c-0.547 0.154-1.927 0.245-2.708-0.47-0.91-0.832-2.32-2.354-3.418-3.685-1.048-1.377-2.2-3.095-2.801-4.176-0.508-0.916-0.083-2.197 0.201-2.672 0.056-0.093 0.13-0.185 0.21-0.276l0.825-0.761c0.012-0.012 0.017-0.027 0.028-0.038 0.008-0.008 0.021-0.005 0.030-0.012 0.745-0.628 1.514-1.274 1.62-2.105 0.123-0.976-0.483-2.296-1.858-4.030l-0.168-0.215c-0.851-1.091-2.137-2.74-3.985-2.469-0.727 0.108-1.376 0.356-2.046 0.776-0.006 0.004-0.010 0.012-0.016 0.016-0.005 0.004-0.012 0.004-0.017 0.008l-0.932 0.69c-0.010 0.006-0.015 0.018-0.024 0.026-0.007 0.006-0.017 0.008-0.025 0.014-0.108 0.091-0.216 0.184-0.323 0.28-0.945 0.843-2.992 3.29-1.596 7.815 0.901 2.923 2.76 6.333 5.388 9.883l-0.025 0.021 1.449 1.805 0.012-0.009c2.85 3.37 5.75 5.976 8.407 7.553 1.773 1.054 3.322 1.402 4.597 1.402 1.677 0 2.879-0.603 3.481-0.995l0.379-0.253c0.043-0.030 0.073-0.071 0.104-0.108l0.825-0.622c0.010-0.008 0.015-0.018 0.024-0.026 0.004-0.004 0.010-0.003 0.016-0.007 0.587-0.536 0.994-1.097 1.276-1.763 0.732-1.705-0.578-3.338-1.445-4.42zM28.12 26.959c-0.22 0.517-0.541 0.957-1.005 1.384l-1.228 0.924c-1.112 0.722-3.49 1.616-6.943-0.435-2.657-1.577-5.582-4.244-8.461-7.712l-0.779-0.984c-2.71-3.595-4.617-7.037-5.517-9.955-1.17-3.793 0.304-5.828 1.29-6.706 0.1-0.091 0.2-0.175 0.3-0.259l0.003-0.004 0.895-0.663c0.463-0.309 1.013-0.529 1.605-0.621l0.023-0.003c1.239-0.186 2.247 1.12 2.987 2.070l0.173 0.22c1.536 1.937 1.684 2.858 1.636 3.234-0.053 0.418-0.688 0.952-1.248 1.423l-0.079 0.067-0.006 0.009-0.012 0.007-0.852 0.788c-0.006 0.005-0.008 0.012-0.014 0.018s-0.016 0.010-0.021 0.016c-0.121 0.133-0.232 0.28-0.33 0.437l-0.007 0.013c-0.48 0.801-0.931 2.457-0.218 3.738 0.623 1.12 1.808 2.89 2.898 4.319 1.138 1.381 2.59 2.95 3.532 3.81 0.705 0.643 1.686 0.86 2.536 0.86 0.454 0 0.872-0.063 1.188-0.153 0.166-0.048 0.338-0.117 0.516-0.204 0.010-0.005 0.016-0.014 0.026-0.021 0.006-0.003 0.014-0.001 0.019-0.005l0.99-0.619c0.031-0.021 0.053-0.050 0.080-0.076l0.011 0.013c0.61-0.422 1.304-0.918 1.739-0.846 0.385 0.046 1.26 0.417 2.799 2.36l0.177 0.222c0.75 0.935 1.776 2.215 1.297 3.334z"></path>
</symbol>
<symbol id="icon-instagramm-icon" viewBox="0 0 32 32">
<path d="M16 10.25c-3.176 0-5.75 2.574-5.75 5.75s2.574 5.75 5.75 5.75v0c3.176 0 5.75-2.574 5.75-5.75s-2.574-5.75-5.75-5.75v0zM16 20.25c-2.347 0-4.25-1.903-4.25-4.25s1.903-4.25 4.25-4.25c2.347 0 4.25 1.903 4.25 4.25v0c-0.007 2.344-1.906 4.243-4.249 4.25h-0.001zM21.5 3.75h-11c-3.728 0-6.75 3.022-6.75 6.75v0 11c0 3.728 3.022 6.75 6.75 6.75v0h11c3.728 0 6.75-3.022 6.75-6.75v0-11c0-3.728-3.022-6.75-6.75-6.75v0zM26.75 21.5c0 2.899-2.351 5.25-5.25 5.25v0h-11c-2.899 0-5.25-2.351-5.25-5.25v0-11c0-2.899 2.351-5.25 5.25-5.25v0h11c2.899 0 5.25 2.351 5.25 5.25v0 11zM23.75 9.5c0 0.69-0.56 1.25-1.25 1.25s-1.25-0.56-1.25-1.25v0c0-0.69 0.56-1.25 1.25-1.25s1.25 0.56 1.25 1.25v0z"></path>
</symbol>
<symbol id="icon-facebook-icon" viewBox="0 0 32 32">
<path d="M23.987 2.128c-1.181-0.133-2.549-0.208-3.936-0.208-0.040 0-0.080 0-0.12 0h0.006c-4.484 0-7.27 2.856-7.27 7.453v3.122h-3.767c0 0 0 0 0 0-0.368 0-0.666 0.298-0.667 0.666v5.134c0.001 0.368 0.299 0.666 0.667 0.666 0 0 0 0 0 0h3.767v10.294c0.001 0.368 0.298 0.665 0.666 0.666h5.304c0 0 0 0 0 0 0.368 0 0.666-0.298 0.667-0.666v-10.295h3.755c0.338-0 0.616-0.251 0.661-0.577l0-0.003 0.663-5.133c0.004-0.026 0.006-0.057 0.006-0.088 0-0.367-0.298-0.665-0.665-0.665-0.001 0-0.002 0-0.003 0h-4.417v-2.611c0-1.294 0.26-1.834 1.877-1.834h2.72c0.368-0.001 0.665-0.298 0.666-0.666v-4.594c-0.001-0.337-0.251-0.616-0.577-0.66l-0.003-0zM23.233 6.715l-2.053 0.001c-2.876 0-3.21 1.808-3.21 3.167v3.28c0.001 0.368 0.298 0.665 0.666 0.666h4.328l-0.492 3.8h-3.835c-0.368 0.001-0.666 0.299-0.666 0.667 0 0 0 0 0 0v0 10.29h-3.971v-10.29c0 0 0 0 0 0 0-0.368-0.299-0.667-0.667-0.667-0 0-0.001 0-0.001 0h-3.764v-3.8h3.765c0 0 0 0 0 0 0.368 0 0.666-0.298 0.667-0.666v-3.79c0-3.832 2.22-6.12 5.937-6.12 1.346 0 2.56 0.074 3.296 0.138v3.324z"></path>
</symbol>
</defs>
</svg>
