<svg width="252" height="133" viewBox="0 0 252 133" fill="none" xmlns="http://www.w3.org/2000/svg">
<path d="M146.531 16.4894C146.152 16.1457 145.693 15.9251 145.206 15.8522C144.719 15.7793 144.224 15.8572 143.775 16.0769L134.306 20.6969C134.264 20.722 134.218 20.7376 134.171 20.7428C134.124 20.7481 134.076 20.7428 134.031 20.7275C133.985 20.7121 133.943 20.6869 133.907 20.6533C133.87 20.6197 133.84 20.5785 133.819 20.5319L128.287 9.60069C128.063 9.14882 127.732 8.77173 127.33 8.50902C126.927 8.2463 126.468 8.10767 126 8.10767C125.532 8.10767 125.072 8.2463 124.67 8.50902C124.267 8.77173 123.937 9.14882 123.712 9.60069L118.181 20.5319C118.159 20.5785 118.129 20.6197 118.093 20.6533C118.057 20.6869 118.014 20.7121 117.969 20.7275C117.924 20.7428 117.876 20.7481 117.828 20.7428C117.781 20.7376 117.735 20.722 117.694 20.6969L108.225 16.0769C107.778 15.8538 107.282 15.7732 106.795 15.8442C106.308 15.9153 105.849 16.1352 105.47 16.479C105.091 16.8228 104.808 17.2766 104.652 17.7889C104.496 18.3012 104.473 18.8514 104.587 19.3769L109.369 41.7138C109.45 42.0913 109.599 42.4468 109.809 42.7588C110.018 43.0707 110.283 43.3327 110.587 43.5288C110.988 43.7986 111.449 43.9413 111.919 43.9413C112.159 43.9389 112.398 43.9042 112.631 43.8382C121.372 41.1781 130.605 41.171 139.35 43.8176C139.691 43.9259 140.048 43.9569 140.401 43.9089C140.753 43.8608 141.093 43.7347 141.4 43.538C141.706 43.3413 141.974 43.0783 142.185 42.7647C142.397 42.4512 142.549 42.0937 142.631 41.7138L147.394 19.3769C147.513 18.8552 147.495 18.307 147.342 17.796C147.189 17.2849 146.908 16.8319 146.531 16.4894ZM145.219 18.7994L140.437 41.1363C140.412 41.2448 140.352 41.3398 140.269 41.4044C140.175 41.4543 140.07 41.4688 139.969 41.4457C130.827 38.668 121.172 38.668 112.031 41.4457C111.982 41.4611 111.93 41.4652 111.879 41.4577C111.829 41.4503 111.78 41.4315 111.736 41.4025C111.692 41.3736 111.654 41.335 111.624 41.2892C111.594 41.2434 111.573 41.1914 111.562 41.1363L106.781 18.7994C106.77 18.7378 106.772 18.6742 106.785 18.6132C106.799 18.5522 106.824 18.4952 106.86 18.4462C106.896 18.3971 106.941 18.3572 106.992 18.3292C107.043 18.3011 107.099 18.2857 107.156 18.2838L107.306 18.3251L116.794 22.9657C117.392 23.2621 118.07 23.2993 118.692 23.0699C119.314 22.8405 119.835 22.3613 120.15 21.7282L125.681 10.7969C125.711 10.7318 125.756 10.677 125.812 10.6387C125.869 10.6004 125.934 10.5801 126 10.5801C126.066 10.5801 126.131 10.6004 126.187 10.6387C126.244 10.677 126.289 10.7318 126.319 10.7969L131.85 21.7282C132.165 22.3613 132.686 22.8405 133.308 23.0699C133.93 23.2993 134.608 23.2621 135.206 22.9657L144.694 18.3251C144.758 18.2937 144.829 18.2829 144.899 18.2938C144.968 18.3048 145.034 18.3371 145.087 18.3869C145.142 18.4353 145.183 18.4996 145.207 18.5725C145.23 18.6454 145.234 18.7241 145.219 18.7994ZM133.125 34.4744C133.093 34.779 132.961 35.0602 132.754 35.2653C132.547 35.4704 132.279 35.5852 132 35.5882H131.887C127.972 35.1551 124.027 35.1551 120.112 35.5882C119.817 35.6229 119.52 35.5274 119.288 35.3226C119.057 35.1177 118.908 34.8202 118.875 34.4951C118.848 34.1676 118.94 33.8419 119.129 33.5875C119.318 33.3331 119.59 33.1703 119.887 33.1338C123.951 32.6594 128.049 32.6594 132.112 33.1338C132.406 33.1703 132.675 33.3302 132.864 33.58C133.053 33.8299 133.146 34.1504 133.125 34.4744Z" fill="#2B7FFF"/>
<path d="M30.4541 71.7051V73.085H23.5283V71.7051H30.4541ZM23.792 66.2031V79H22.0957V66.2031H23.792ZM31.9307 66.2031V79H30.2432V66.2031H31.9307ZM40.3066 77.374V72.4785C40.3066 72.1035 40.2305 71.7783 40.0781 71.5029C39.9316 71.2217 39.709 71.0049 39.4102 70.8525C39.1113 70.7002 38.7422 70.624 38.3027 70.624C37.8926 70.624 37.5322 70.6943 37.2217 70.835C36.917 70.9756 36.6768 71.1602 36.501 71.3887C36.3311 71.6172 36.2461 71.8633 36.2461 72.127H34.6201C34.6201 71.7871 34.708 71.4502 34.8838 71.1162C35.0596 70.7822 35.3115 70.4805 35.6396 70.2109C35.9736 69.9355 36.3721 69.7188 36.835 69.5605C37.3037 69.3965 37.8252 69.3145 38.3994 69.3145C39.0908 69.3145 39.7002 69.4316 40.2275 69.666C40.7607 69.9004 41.1768 70.2549 41.4756 70.7295C41.7803 71.1982 41.9326 71.7871 41.9326 72.4961V76.9258C41.9326 77.2422 41.959 77.5791 42.0117 77.9365C42.0703 78.2939 42.1553 78.6016 42.2666 78.8594V79H40.5703C40.4883 78.8125 40.4238 78.5635 40.377 78.2529C40.3301 77.9365 40.3066 77.6436 40.3066 77.374ZM40.5879 73.2344L40.6055 74.377H38.9619C38.499 74.377 38.0859 74.415 37.7227 74.4912C37.3594 74.5615 37.0547 74.6699 36.8086 74.8164C36.5625 74.9629 36.375 75.1475 36.2461 75.3701C36.1172 75.5869 36.0527 75.8418 36.0527 76.1348C36.0527 76.4336 36.1201 76.7061 36.2549 76.9521C36.3896 77.1982 36.5918 77.3945 36.8613 77.541C37.1367 77.6816 37.4736 77.752 37.8721 77.752C38.3701 77.752 38.8096 77.6465 39.1904 77.4355C39.5713 77.2246 39.873 76.9668 40.0957 76.6621C40.3242 76.3574 40.4473 76.0615 40.4648 75.7744L41.1592 76.5566C41.1182 76.8027 41.0068 77.0752 40.8252 77.374C40.6436 77.6729 40.4004 77.96 40.0957 78.2354C39.7969 78.5049 39.4395 78.7305 39.0234 78.9121C38.6133 79.0879 38.1504 79.1758 37.6348 79.1758C36.9902 79.1758 36.4248 79.0498 35.9385 78.7979C35.458 78.5459 35.083 78.209 34.8135 77.7871C34.5498 77.3594 34.418 76.8818 34.418 76.3545C34.418 75.8447 34.5176 75.3965 34.7168 75.0098C34.916 74.6172 35.2031 74.292 35.5781 74.0342C35.9531 73.7705 36.4043 73.5713 36.9316 73.4365C37.459 73.3018 38.0479 73.2344 38.6982 73.2344H40.5879ZM44.6309 69.4902H46.2568V77.6641H49.7373V69.4902H51.3721V77.6641H54.8438V69.4902H56.4697V79H44.6309V69.4902ZM64.6699 77.374V72.4785C64.6699 72.1035 64.5938 71.7783 64.4414 71.5029C64.2949 71.2217 64.0723 71.0049 63.7734 70.8525C63.4746 70.7002 63.1055 70.624 62.666 70.624C62.2559 70.624 61.8955 70.6943 61.585 70.835C61.2803 70.9756 61.04 71.1602 60.8643 71.3887C60.6943 71.6172 60.6094 71.8633 60.6094 72.127H58.9834C58.9834 71.7871 59.0713 71.4502 59.2471 71.1162C59.4229 70.7822 59.6748 70.4805 60.0029 70.2109C60.3369 69.9355 60.7354 69.7188 61.1982 69.5605C61.667 69.3965 62.1885 69.3145 62.7627 69.3145C63.4541 69.3145 64.0635 69.4316 64.5908 69.666C65.124 69.9004 65.54 70.2549 65.8389 70.7295C66.1436 71.1982 66.2959 71.7871 66.2959 72.4961V76.9258C66.2959 77.2422 66.3223 77.5791 66.375 77.9365C66.4336 78.2939 66.5186 78.6016 66.6299 78.8594V79H64.9336C64.8516 78.8125 64.7871 78.5635 64.7402 78.2529C64.6934 77.9365 64.6699 77.6436 64.6699 77.374ZM64.9512 73.2344L64.9688 74.377H63.3252C62.8623 74.377 62.4492 74.415 62.0859 74.4912C61.7227 74.5615 61.418 74.6699 61.1719 74.8164C60.9258 74.9629 60.7383 75.1475 60.6094 75.3701C60.4805 75.5869 60.416 75.8418 60.416 76.1348C60.416 76.4336 60.4834 76.7061 60.6182 76.9521C60.7529 77.1982 60.9551 77.3945 61.2246 77.541C61.5 77.6816 61.8369 77.752 62.2354 77.752C62.7334 77.752 63.1729 77.6465 63.5537 77.4355C63.9346 77.2246 64.2363 76.9668 64.459 76.6621C64.6875 76.3574 64.8105 76.0615 64.8281 75.7744L65.5225 76.5566C65.4814 76.8027 65.3701 77.0752 65.1885 77.374C65.0068 77.6729 64.7637 77.96 64.459 78.2354C64.1602 78.5049 63.8027 78.7305 63.3867 78.9121C62.9766 79.0879 62.5137 79.1758 61.998 79.1758C61.3535 79.1758 60.7881 79.0498 60.3018 78.7979C59.8213 78.5459 59.4463 78.209 59.1768 77.7871C58.9131 77.3594 58.7812 76.8818 58.7812 76.3545C58.7812 75.8447 58.8809 75.3965 59.0801 75.0098C59.2793 74.6172 59.5664 74.292 59.9414 74.0342C60.3164 73.7705 60.7676 73.5713 61.2949 73.4365C61.8223 73.3018 62.4111 73.2344 63.0615 73.2344H64.9512ZM78.7852 76.8379L82.0195 69.4902H83.584L79.3477 79H78.2227L74.0039 69.4902H75.5684L78.7852 76.8379ZM75.0938 69.4902V79H73.4678V69.4902H75.0938ZM82.4238 79V69.4902H84.0586V79H82.4238ZM90.624 79.1758C89.9619 79.1758 89.3613 79.0645 88.8223 78.8418C88.2891 78.6133 87.8291 78.2939 87.4424 77.8838C87.0615 77.4736 86.7686 76.9873 86.5635 76.4248C86.3584 75.8623 86.2559 75.2471 86.2559 74.5791V74.21C86.2559 73.4365 86.3701 72.748 86.5986 72.1445C86.8271 71.5352 87.1377 71.0195 87.5303 70.5977C87.9229 70.1758 88.3682 69.8564 88.8662 69.6396C89.3643 69.4229 89.8799 69.3145 90.4131 69.3145C91.0928 69.3145 91.6787 69.4316 92.1709 69.666C92.6689 69.9004 93.0762 70.2285 93.3926 70.6504C93.709 71.0664 93.9434 71.5586 94.0957 72.127C94.248 72.6895 94.3242 73.3047 94.3242 73.9727V74.7021H87.2227V73.375H92.6982V73.252C92.6748 72.8301 92.5869 72.4199 92.4346 72.0215C92.2881 71.623 92.0537 71.2949 91.7314 71.0371C91.4092 70.7793 90.9697 70.6504 90.4131 70.6504C90.0439 70.6504 89.7041 70.7295 89.3936 70.8877C89.083 71.04 88.8164 71.2686 88.5938 71.5732C88.3711 71.8779 88.1982 72.25 88.0752 72.6895C87.9521 73.1289 87.8906 73.6357 87.8906 74.21V74.5791C87.8906 75.0303 87.9521 75.4551 88.0752 75.8535C88.2041 76.2461 88.3887 76.5918 88.6289 76.8906C88.875 77.1895 89.1709 77.4238 89.5166 77.5938C89.8682 77.7637 90.2666 77.8486 90.7119 77.8486C91.2861 77.8486 91.7725 77.7314 92.1709 77.4971C92.5693 77.2627 92.918 76.9492 93.2168 76.5566L94.2012 77.3389C93.9961 77.6494 93.7354 77.9453 93.4189 78.2266C93.1025 78.5078 92.7129 78.7363 92.25 78.9121C91.793 79.0879 91.251 79.1758 90.624 79.1758ZM99.9932 69.4902V79H98.3584V69.4902H99.9932ZM103.184 69.4902V70.8086H95.2295V69.4902H103.184ZM110.25 77.374V72.4785C110.25 72.1035 110.174 71.7783 110.021 71.5029C109.875 71.2217 109.652 71.0049 109.354 70.8525C109.055 70.7002 108.686 70.624 108.246 70.624C107.836 70.624 107.476 70.6943 107.165 70.835C106.86 70.9756 106.62 71.1602 106.444 71.3887C106.274 71.6172 106.189 71.8633 106.189 72.127H104.563C104.563 71.7871 104.651 71.4502 104.827 71.1162C105.003 70.7822 105.255 70.4805 105.583 70.2109C105.917 69.9355 106.315 69.7188 106.778 69.5605C107.247 69.3965 107.769 69.3145 108.343 69.3145C109.034 69.3145 109.644 69.4316 110.171 69.666C110.704 69.9004 111.12 70.2549 111.419 70.7295C111.724 71.1982 111.876 71.7871 111.876 72.4961V76.9258C111.876 77.2422 111.902 77.5791 111.955 77.9365C112.014 78.2939 112.099 78.6016 112.21 78.8594V79H110.514C110.432 78.8125 110.367 78.5635 110.32 78.2529C110.273 77.9365 110.25 77.6436 110.25 77.374ZM110.531 73.2344L110.549 74.377H108.905C108.442 74.377 108.029 74.415 107.666 74.4912C107.303 74.5615 106.998 74.6699 106.752 74.8164C106.506 74.9629 106.318 75.1475 106.189 75.3701C106.061 75.5869 105.996 75.8418 105.996 76.1348C105.996 76.4336 106.063 76.7061 106.198 76.9521C106.333 77.1982 106.535 77.3945 106.805 77.541C107.08 77.6816 107.417 77.752 107.815 77.752C108.313 77.752 108.753 77.6465 109.134 77.4355C109.515 77.2246 109.816 76.9668 110.039 76.6621C110.268 76.3574 110.391 76.0615 110.408 75.7744L111.103 76.5566C111.062 76.8027 110.95 77.0752 110.769 77.374C110.587 77.6729 110.344 77.96 110.039 78.2354C109.74 78.5049 109.383 78.7305 108.967 78.9121C108.557 79.0879 108.094 79.1758 107.578 79.1758C106.934 79.1758 106.368 79.0498 105.882 78.7979C105.401 78.5459 105.026 78.209 104.757 77.7871C104.493 77.3594 104.361 76.8818 104.361 76.3545C104.361 75.8447 104.461 75.3965 104.66 75.0098C104.859 74.6172 105.146 74.292 105.521 74.0342C105.896 73.7705 106.348 73.5713 106.875 73.4365C107.402 73.3018 107.991 73.2344 108.642 73.2344H110.531ZM122.282 72.8916V74.2275H117.993V72.8916H122.282ZM134.675 69.4902V70.835H129.867V69.4902H134.675ZM130.104 69.4902V79H128.479V69.4902H130.104ZM136.116 69.4902V79H134.481V69.4902H136.116ZM140.493 69.4902V79H138.858V69.4902H140.493ZM138.735 66.9678C138.735 66.7041 138.814 66.4814 138.973 66.2998C139.137 66.1182 139.377 66.0273 139.693 66.0273C140.004 66.0273 140.241 66.1182 140.405 66.2998C140.575 66.4814 140.66 66.7041 140.66 66.9678C140.66 67.2197 140.575 67.4365 140.405 67.6182C140.241 67.7939 140.004 67.8818 139.693 67.8818C139.377 67.8818 139.137 67.7939 138.973 67.6182C138.814 67.4365 138.735 67.2197 138.735 66.9678ZM144.817 69.4902H146.443L146.303 73.0498C146.268 73.9521 146.165 74.7314 145.995 75.3877C145.825 76.0439 145.608 76.6035 145.345 77.0664C145.081 77.5234 144.785 77.9072 144.457 78.2178C144.135 78.5283 143.801 78.7891 143.455 79H142.646L142.69 77.6729L143.024 77.6641C143.218 77.4355 143.405 77.2012 143.587 76.9609C143.769 76.7148 143.936 76.4248 144.088 76.0908C144.24 75.751 144.366 75.3379 144.466 74.8516C144.571 74.3594 144.639 73.7588 144.668 73.0498L144.817 69.4902ZM145.222 69.4902H150.943V79H149.317V70.9932H145.222V69.4902ZM142.277 77.6641H152.165V81.8037H150.539V79H143.903V81.8037H142.269L142.277 77.6641ZM155.733 69.4902V79H154.107V69.4902H155.733ZM161.974 69.4902L157.465 74.9395H155.188L154.942 73.5156H156.806L159.996 69.4902H161.974ZM160.225 79L156.727 74.6934L157.772 73.5156L162.29 79H160.225ZM165.331 71.3184V82.6562H163.696V69.4902H165.19L165.331 71.3184ZM171.738 74.166V74.3506C171.738 75.042 171.656 75.6836 171.492 76.2754C171.328 76.8613 171.088 77.3711 170.771 77.8047C170.461 78.2383 170.077 78.5752 169.62 78.8154C169.163 79.0557 168.639 79.1758 168.047 79.1758C167.443 79.1758 166.91 79.0762 166.447 78.877C165.984 78.6777 165.592 78.3877 165.27 78.0068C164.947 77.626 164.689 77.1689 164.496 76.6357C164.309 76.1025 164.18 75.502 164.109 74.834V73.8496C164.18 73.1465 164.312 72.5166 164.505 71.96C164.698 71.4033 164.953 70.9287 165.27 70.5361C165.592 70.1377 165.981 69.8359 166.438 69.6309C166.896 69.4199 167.423 69.3145 168.021 69.3145C168.618 69.3145 169.148 69.4316 169.611 69.666C170.074 69.8945 170.464 70.2227 170.78 70.6504C171.097 71.0781 171.334 71.5908 171.492 72.1885C171.656 72.7803 171.738 73.4395 171.738 74.166ZM170.104 74.3506V74.166C170.104 73.6914 170.054 73.2461 169.954 72.8301C169.854 72.4082 169.699 72.0391 169.488 71.7227C169.283 71.4004 169.02 71.1484 168.697 70.9668C168.375 70.7793 167.991 70.6855 167.546 70.6855C167.136 70.6855 166.778 70.7559 166.474 70.8965C166.175 71.0371 165.92 71.2275 165.709 71.4678C165.498 71.7021 165.325 71.9717 165.19 72.2764C165.062 72.5752 164.965 72.8857 164.9 73.208V75.4844C165.018 75.8945 165.182 76.2812 165.393 76.6445C165.604 77.002 165.885 77.292 166.236 77.5146C166.588 77.7314 167.03 77.8398 167.563 77.8398C168.003 77.8398 168.381 77.749 168.697 77.5674C169.02 77.3799 169.283 77.125 169.488 76.8027C169.699 76.4805 169.854 76.1113 169.954 75.6953C170.054 75.2734 170.104 74.8252 170.104 74.3506ZM177.759 79.1758C177.097 79.1758 176.496 79.0645 175.957 78.8418C175.424 78.6133 174.964 78.2939 174.577 77.8838C174.196 77.4736 173.903 76.9873 173.698 76.4248C173.493 75.8623 173.391 75.2471 173.391 74.5791V74.21C173.391 73.4365 173.505 72.748 173.733 72.1445C173.962 71.5352 174.272 71.0195 174.665 70.5977C175.058 70.1758 175.503 69.8564 176.001 69.6396C176.499 69.4229 177.015 69.3145 177.548 69.3145C178.228 69.3145 178.813 69.4316 179.306 69.666C179.804 69.9004 180.211 70.2285 180.527 70.6504C180.844 71.0664 181.078 71.5586 181.23 72.127C181.383 72.6895 181.459 73.3047 181.459 73.9727V74.7021H174.357V73.375H179.833V73.252C179.81 72.8301 179.722 72.4199 179.569 72.0215C179.423 71.623 179.188 71.2949 178.866 71.0371C178.544 70.7793 178.104 70.6504 177.548 70.6504C177.179 70.6504 176.839 70.7295 176.528 70.8877C176.218 71.04 175.951 71.2686 175.729 71.5732C175.506 71.8779 175.333 72.25 175.21 72.6895C175.087 73.1289 175.025 73.6357 175.025 74.21V74.5791C175.025 75.0303 175.087 75.4551 175.21 75.8535C175.339 76.2461 175.523 76.5918 175.764 76.8906C176.01 77.1895 176.306 77.4238 176.651 77.5938C177.003 77.7637 177.401 77.8486 177.847 77.8486C178.421 77.8486 178.907 77.7314 179.306 77.4971C179.704 77.2627 180.053 76.9492 180.352 76.5566L181.336 77.3389C181.131 77.6494 180.87 77.9453 180.554 78.2266C180.237 78.5078 179.848 78.7363 179.385 78.9121C178.928 79.0879 178.386 79.1758 177.759 79.1758ZM187.163 77.8398C187.55 77.8398 187.907 77.7607 188.235 77.6025C188.563 77.4443 188.833 77.2275 189.044 76.9521C189.255 76.6709 189.375 76.3516 189.404 75.9941H190.951C190.922 76.5566 190.731 77.0811 190.38 77.5674C190.034 78.0479 189.58 78.4375 189.018 78.7363C188.455 79.0293 187.837 79.1758 187.163 79.1758C186.448 79.1758 185.824 79.0498 185.291 78.7979C184.764 78.5459 184.324 78.2002 183.973 77.7607C183.627 77.3213 183.366 76.8174 183.19 76.249C183.021 75.6748 182.936 75.0684 182.936 74.4297V74.0605C182.936 73.4219 183.021 72.8184 183.19 72.25C183.366 71.6758 183.627 71.1689 183.973 70.7295C184.324 70.29 184.764 69.9443 185.291 69.6924C185.824 69.4404 186.448 69.3145 187.163 69.3145C187.907 69.3145 188.558 69.4668 189.114 69.7715C189.671 70.0703 190.107 70.4805 190.424 71.002C190.746 71.5176 190.922 72.1035 190.951 72.7598H189.404C189.375 72.3672 189.264 72.0127 189.07 71.6963C188.883 71.3799 188.625 71.1279 188.297 70.9404C187.975 70.7471 187.597 70.6504 187.163 70.6504C186.665 70.6504 186.246 70.75 185.906 70.9492C185.572 71.1426 185.306 71.4062 185.106 71.7402C184.913 72.0684 184.772 72.4346 184.685 72.8389C184.603 73.2373 184.562 73.6445 184.562 74.0605V74.4297C184.562 74.8457 184.603 75.2559 184.685 75.6602C184.767 76.0645 184.904 76.4307 185.098 76.7588C185.297 77.0869 185.563 77.3506 185.897 77.5498C186.237 77.7432 186.659 77.8398 187.163 77.8398ZM199.134 69.4902V70.835H194.537V69.4902H199.134ZM200.566 69.4902V79H198.94V69.4902H200.566ZM194.142 69.4902H195.776L195.53 74.0781C195.489 74.7871 195.422 75.4141 195.328 75.959C195.24 76.498 195.117 76.9609 194.959 77.3477C194.807 77.7344 194.613 78.0508 194.379 78.2969C194.15 78.5371 193.875 78.7158 193.553 78.833C193.23 78.9443 192.858 79 192.437 79H191.927V77.5674L192.278 77.541C192.53 77.5234 192.744 77.4648 192.92 77.3652C193.102 77.2656 193.254 77.1191 193.377 76.9258C193.5 76.7266 193.6 76.4717 193.676 76.1611C193.758 75.8506 193.819 75.4814 193.86 75.0537C193.907 74.626 193.942 74.1279 193.966 73.5596L194.142 69.4902ZM204.943 76.4248L209.329 69.4902H210.964V79H209.329V72.0654L204.943 79H203.326V69.4902H204.943V76.4248ZM217.45 69.4902V79H215.815V69.4902H217.45ZM220.641 69.4902V70.8086H212.687V69.4902H220.641ZM223.998 76.4248L228.384 69.4902H230.019V79H228.384V72.0654L223.998 79H222.381V69.4902H223.998V76.4248ZM36.6855 93.4902V94.835H31.8779V93.4902H36.6855ZM32.1152 93.4902V103H30.4893V93.4902H32.1152ZM38.127 93.4902V103H36.4922V93.4902H38.127ZM44.6836 103.176C44.0215 103.176 43.4209 103.064 42.8818 102.842C42.3486 102.613 41.8887 102.294 41.502 101.884C41.1211 101.474 40.8281 100.987 40.623 100.425C40.418 99.8623 40.3154 99.2471 40.3154 98.5791V98.21C40.3154 97.4365 40.4297 96.748 40.6582 96.1445C40.8867 95.5352 41.1973 95.0195 41.5898 94.5977C41.9824 94.1758 42.4277 93.8564 42.9258 93.6396C43.4238 93.4229 43.9395 93.3145 44.4727 93.3145C45.1523 93.3145 45.7383 93.4316 46.2305 93.666C46.7285 93.9004 47.1357 94.2285 47.4521 94.6504C47.7686 95.0664 48.0029 95.5586 48.1553 96.127C48.3076 96.6895 48.3838 97.3047 48.3838 97.9727V98.7021H41.2822V97.375H46.7578V97.252C46.7344 96.8301 46.6465 96.4199 46.4941 96.0215C46.3477 95.623 46.1133 95.2949 45.791 95.0371C45.4688 94.7793 45.0293 94.6504 44.4727 94.6504C44.1035 94.6504 43.7637 94.7295 43.4531 94.8877C43.1426 95.04 42.876 95.2686 42.6533 95.5732C42.4307 95.8779 42.2578 96.25 42.1348 96.6895C42.0117 97.1289 41.9502 97.6357 41.9502 98.21V98.5791C41.9502 99.0303 42.0117 99.4551 42.1348 99.8535C42.2637 100.246 42.4482 100.592 42.6885 100.891C42.9346 101.189 43.2305 101.424 43.5762 101.594C43.9277 101.764 44.3262 101.849 44.7715 101.849C45.3457 101.849 45.832 101.731 46.2305 101.497C46.6289 101.263 46.9775 100.949 47.2764 100.557L48.2607 101.339C48.0557 101.649 47.7949 101.945 47.4785 102.227C47.1621 102.508 46.7725 102.736 46.3096 102.912C45.8525 103.088 45.3105 103.176 44.6836 103.176ZM51.9082 95.3184V106.656H50.2734V93.4902H51.7676L51.9082 95.3184ZM58.3154 98.166V98.3506C58.3154 99.042 58.2334 99.6836 58.0693 100.275C57.9053 100.861 57.665 101.371 57.3486 101.805C57.0381 102.238 56.6543 102.575 56.1973 102.815C55.7402 103.056 55.2158 103.176 54.624 103.176C54.0205 103.176 53.4873 103.076 53.0244 102.877C52.5615 102.678 52.1689 102.388 51.8467 102.007C51.5244 101.626 51.2666 101.169 51.0732 100.636C50.8857 100.103 50.7568 99.502 50.6865 98.834V97.8496C50.7568 97.1465 50.8887 96.5166 51.082 95.96C51.2754 95.4033 51.5303 94.9287 51.8467 94.5361C52.1689 94.1377 52.5586 93.8359 53.0156 93.6309C53.4727 93.4199 54 93.3145 54.5977 93.3145C55.1953 93.3145 55.7256 93.4316 56.1885 93.666C56.6514 93.8945 57.041 94.2227 57.3574 94.6504C57.6738 95.0781 57.9111 95.5908 58.0693 96.1885C58.2334 96.7803 58.3154 97.4395 58.3154 98.166ZM56.6807 98.3506V98.166C56.6807 97.6914 56.6309 97.2461 56.5312 96.8301C56.4316 96.4082 56.2764 96.0391 56.0654 95.7227C55.8604 95.4004 55.5967 95.1484 55.2744 94.9668C54.9521 94.7793 54.5684 94.6855 54.123 94.6855C53.7129 94.6855 53.3555 94.7559 53.0508 94.8965C52.752 95.0371 52.4971 95.2275 52.2861 95.4678C52.0752 95.7021 51.9023 95.9717 51.7676 96.2764C51.6387 96.5752 51.542 96.8857 51.4775 97.208V99.4844C51.5947 99.8945 51.7588 100.281 51.9697 100.645C52.1807 101.002 52.4619 101.292 52.8135 101.515C53.165 101.731 53.6074 101.84 54.1406 101.84C54.5801 101.84 54.958 101.749 55.2744 101.567C55.5967 101.38 55.8604 101.125 56.0654 100.803C56.2764 100.48 56.4316 100.111 56.5312 99.6953C56.6309 99.2734 56.6807 98.8252 56.6807 98.3506ZM64.3359 103.176C63.6738 103.176 63.0732 103.064 62.5342 102.842C62.001 102.613 61.541 102.294 61.1543 101.884C60.7734 101.474 60.4805 100.987 60.2754 100.425C60.0703 99.8623 59.9678 99.2471 59.9678 98.5791V98.21C59.9678 97.4365 60.082 96.748 60.3105 96.1445C60.5391 95.5352 60.8496 95.0195 61.2422 94.5977C61.6348 94.1758 62.0801 93.8564 62.5781 93.6396C63.0762 93.4229 63.5918 93.3145 64.125 93.3145C64.8047 93.3145 65.3906 93.4316 65.8828 93.666C66.3809 93.9004 66.7881 94.2285 67.1045 94.6504C67.4209 95.0664 67.6553 95.5586 67.8076 96.127C67.96 96.6895 68.0361 97.3047 68.0361 97.9727V98.7021H60.9346V97.375H66.4102V97.252C66.3867 96.8301 66.2988 96.4199 66.1465 96.0215C66 95.623 65.7656 95.2949 65.4434 95.0371C65.1211 94.7793 64.6816 94.6504 64.125 94.6504C63.7559 94.6504 63.416 94.7295 63.1055 94.8877C62.7949 95.04 62.5283 95.2686 62.3057 95.5732C62.083 95.8779 61.9102 96.25 61.7871 96.6895C61.6641 97.1289 61.6025 97.6357 61.6025 98.21V98.5791C61.6025 99.0303 61.6641 99.4551 61.7871 99.8535C61.916 100.246 62.1006 100.592 62.3408 100.891C62.5869 101.189 62.8828 101.424 63.2285 101.594C63.5801 101.764 63.9785 101.849 64.4238 101.849C64.998 101.849 65.4844 101.731 65.8828 101.497C66.2812 101.263 66.6299 100.949 66.9287 100.557L67.9131 101.339C67.708 101.649 67.4473 101.945 67.1309 102.227C66.8145 102.508 66.4248 102.736 65.9619 102.912C65.5049 103.088 64.9629 103.176 64.3359 103.176ZM74.3994 98.8164H71.2793L71.2617 97.5156H73.8105C74.3145 97.5156 74.7334 97.4658 75.0674 97.3662C75.4072 97.2666 75.6621 97.1172 75.832 96.918C76.002 96.7188 76.0869 96.4727 76.0869 96.1797C76.0869 95.9512 76.0371 95.752 75.9375 95.582C75.8438 95.4062 75.7002 95.2627 75.5068 95.1514C75.3135 95.0342 75.0732 94.9492 74.7861 94.8965C74.5049 94.8379 74.1738 94.8086 73.793 94.8086H71.71V103H70.084V93.4902H73.793C74.3965 93.4902 74.9385 93.543 75.4189 93.6484C75.9053 93.7539 76.3184 93.915 76.6582 94.1318C77.0039 94.3428 77.2676 94.6123 77.4492 94.9404C77.6309 95.2686 77.7217 95.6553 77.7217 96.1006C77.7217 96.3877 77.6631 96.6602 77.5459 96.918C77.4287 97.1758 77.2559 97.4043 77.0273 97.6035C76.7988 97.8027 76.5176 97.9668 76.1836 98.0957C75.8496 98.2188 75.4658 98.2979 75.0322 98.333L74.3994 98.8164ZM74.3994 103H70.6904L71.499 101.682H74.3994C74.8506 101.682 75.2256 101.626 75.5244 101.515C75.8232 101.397 76.0459 101.233 76.1924 101.022C76.3447 100.806 76.4209 100.548 76.4209 100.249C76.4209 99.9502 76.3447 99.6953 76.1924 99.4844C76.0459 99.2676 75.8232 99.1035 75.5244 98.9922C75.2256 98.875 74.8506 98.8164 74.3994 98.8164H71.9297L71.9473 97.5156H75.0322L75.6211 98.0078C76.1426 98.0488 76.585 98.1777 76.9482 98.3945C77.3115 98.6113 77.5869 98.8867 77.7744 99.2207C77.9619 99.5488 78.0557 99.9062 78.0557 100.293C78.0557 100.738 77.9707 101.131 77.8008 101.471C77.6367 101.811 77.3965 102.095 77.0801 102.323C76.7637 102.546 76.3799 102.716 75.9287 102.833C75.4775 102.944 74.9678 103 74.3994 103ZM85.8428 101.374V96.4785C85.8428 96.1035 85.7666 95.7783 85.6143 95.5029C85.4678 95.2217 85.2451 95.0049 84.9463 94.8525C84.6475 94.7002 84.2783 94.624 83.8389 94.624C83.4287 94.624 83.0684 94.6943 82.7578 94.835C82.4531 94.9756 82.2129 95.1602 82.0371 95.3887C81.8672 95.6172 81.7822 95.8633 81.7822 96.127H80.1562C80.1562 95.7871 80.2441 95.4502 80.4199 95.1162C80.5957 94.7822 80.8477 94.4805 81.1758 94.2109C81.5098 93.9355 81.9082 93.7188 82.3711 93.5605C82.8398 93.3965 83.3613 93.3145 83.9355 93.3145C84.627 93.3145 85.2363 93.4316 85.7637 93.666C86.2969 93.9004 86.7129 94.2549 87.0117 94.7295C87.3164 95.1982 87.4688 95.7871 87.4688 96.4961V100.926C87.4688 101.242 87.4951 101.579 87.5479 101.937C87.6064 102.294 87.6914 102.602 87.8027 102.859V103H86.1064C86.0244 102.812 85.96 102.563 85.9131 102.253C85.8662 101.937 85.8428 101.644 85.8428 101.374ZM86.124 97.2344L86.1416 98.377H84.498C84.0352 98.377 83.6221 98.415 83.2588 98.4912C82.8955 98.5615 82.5908 98.6699 82.3447 98.8164C82.0986 98.9629 81.9111 99.1475 81.7822 99.3701C81.6533 99.5869 81.5889 99.8418 81.5889 100.135C81.5889 100.434 81.6562 100.706 81.791 100.952C81.9258 101.198 82.1279 101.395 82.3975 101.541C82.6729 101.682 83.0098 101.752 83.4082 101.752C83.9062 101.752 84.3457 101.646 84.7266 101.436C85.1074 101.225 85.4092 100.967 85.6318 100.662C85.8604 100.357 85.9834 100.062 86.001 99.7744L86.6953 100.557C86.6543 100.803 86.543 101.075 86.3613 101.374C86.1797 101.673 85.9365 101.96 85.6318 102.235C85.333 102.505 84.9756 102.73 84.5596 102.912C84.1494 103.088 83.6865 103.176 83.1709 103.176C82.5264 103.176 81.9609 103.05 81.4746 102.798C80.9941 102.546 80.6191 102.209 80.3496 101.787C80.0859 101.359 79.9541 100.882 79.9541 100.354C79.9541 99.8447 80.0537 99.3965 80.2529 99.0098C80.4521 98.6172 80.7393 98.292 81.1143 98.0342C81.4893 97.7705 81.9404 97.5713 82.4678 97.4365C82.9951 97.3018 83.584 97.2344 84.2344 97.2344H86.124ZM96.1699 93.4902V94.835H91.7754V103H90.1494V93.4902H96.1699ZM99.3428 100.425L103.729 93.4902H105.363V103H103.729V96.0654L99.3428 103H97.7256V93.4902H99.3428V100.425ZM116.314 93.4902V103H114.68V93.4902H116.314ZM119.505 93.4902V94.8086H111.551V93.4902H119.505ZM126.571 101.374V96.4785C126.571 96.1035 126.495 95.7783 126.343 95.5029C126.196 95.2217 125.974 95.0049 125.675 94.8525C125.376 94.7002 125.007 94.624 124.567 94.624C124.157 94.624 123.797 94.6943 123.486 94.835C123.182 94.9756 122.941 95.1602 122.766 95.3887C122.596 95.6172 122.511 95.8633 122.511 96.127H120.885C120.885 95.7871 120.973 95.4502 121.148 95.1162C121.324 94.7822 121.576 94.4805 121.904 94.2109C122.238 93.9355 122.637 93.7188 123.1 93.5605C123.568 93.3965 124.09 93.3145 124.664 93.3145C125.355 93.3145 125.965 93.4316 126.492 93.666C127.025 93.9004 127.441 94.2549 127.74 94.7295C128.045 95.1982 128.197 95.7871 128.197 96.4961V100.926C128.197 101.242 128.224 101.579 128.276 101.937C128.335 102.294 128.42 102.602 128.531 102.859V103H126.835C126.753 102.812 126.688 102.563 126.642 102.253C126.595 101.937 126.571 101.644 126.571 101.374ZM126.853 97.2344L126.87 98.377H125.227C124.764 98.377 124.351 98.415 123.987 98.4912C123.624 98.5615 123.319 98.6699 123.073 98.8164C122.827 98.9629 122.64 99.1475 122.511 99.3701C122.382 99.5869 122.317 99.8418 122.317 100.135C122.317 100.434 122.385 100.706 122.52 100.952C122.654 101.198 122.856 101.395 123.126 101.541C123.401 101.682 123.738 101.752 124.137 101.752C124.635 101.752 125.074 101.646 125.455 101.436C125.836 101.225 126.138 100.967 126.36 100.662C126.589 100.357 126.712 100.062 126.729 99.7744L127.424 100.557C127.383 100.803 127.271 101.075 127.09 101.374C126.908 101.673 126.665 101.96 126.36 102.235C126.062 102.505 125.704 102.73 125.288 102.912C124.878 103.088 124.415 103.176 123.899 103.176C123.255 103.176 122.689 103.05 122.203 102.798C121.723 102.546 121.348 102.209 121.078 101.787C120.814 101.359 120.683 100.882 120.683 100.354C120.683 99.8447 120.782 99.3965 120.981 99.0098C121.181 98.6172 121.468 98.292 121.843 98.0342C122.218 97.7705 122.669 97.5713 123.196 97.4365C123.724 97.3018 124.312 97.2344 124.963 97.2344H126.853ZM141.557 93.4902V94.835H136.749V93.4902H141.557ZM136.986 93.4902V103H135.36V93.4902H136.986ZM142.998 93.4902V103H141.363V93.4902H142.998ZM147.234 95.3184V106.656H145.6V93.4902H147.094L147.234 95.3184ZM153.642 98.166V98.3506C153.642 99.042 153.56 99.6836 153.396 100.275C153.231 100.861 152.991 101.371 152.675 101.805C152.364 102.238 151.98 102.575 151.523 102.815C151.066 103.056 150.542 103.176 149.95 103.176C149.347 103.176 148.813 103.076 148.351 102.877C147.888 102.678 147.495 102.388 147.173 102.007C146.851 101.626 146.593 101.169 146.399 100.636C146.212 100.103 146.083 99.502 146.013 98.834V97.8496C146.083 97.1465 146.215 96.5166 146.408 95.96C146.602 95.4033 146.856 94.9287 147.173 94.5361C147.495 94.1377 147.885 93.8359 148.342 93.6309C148.799 93.4199 149.326 93.3145 149.924 93.3145C150.521 93.3145 151.052 93.4316 151.515 93.666C151.978 93.8945 152.367 94.2227 152.684 94.6504C153 95.0781 153.237 95.5908 153.396 96.1885C153.56 96.7803 153.642 97.4395 153.642 98.166ZM152.007 98.3506V98.166C152.007 97.6914 151.957 97.2461 151.857 96.8301C151.758 96.4082 151.603 96.0391 151.392 95.7227C151.187 95.4004 150.923 95.1484 150.601 94.9668C150.278 94.7793 149.895 94.6855 149.449 94.6855C149.039 94.6855 148.682 94.7559 148.377 94.8965C148.078 95.0371 147.823 95.2275 147.612 95.4678C147.401 95.7021 147.229 95.9717 147.094 96.2764C146.965 96.5752 146.868 96.8857 146.804 97.208V99.4844C146.921 99.8945 147.085 100.281 147.296 100.645C147.507 101.002 147.788 101.292 148.14 101.515C148.491 101.731 148.934 101.84 149.467 101.84C149.906 101.84 150.284 101.749 150.601 101.567C150.923 101.38 151.187 101.125 151.392 100.803C151.603 100.48 151.758 100.111 151.857 99.6953C151.957 99.2734 152.007 98.8252 152.007 98.3506ZM157.474 100.425L161.859 93.4902H163.494V103H161.859V96.0654L157.474 103H155.856V93.4902H157.474V100.425ZM167.203 93.4902L169.286 96.9531L171.396 93.4902H173.303L170.191 98.1836L173.399 103H171.519L169.321 99.4316L167.124 103H165.234L168.434 98.1836L165.331 93.4902H167.203ZM174.428 98.3506V98.1484C174.428 97.4629 174.527 96.8271 174.727 96.2412C174.926 95.6494 175.213 95.1367 175.588 94.7031C175.963 94.2637 176.417 93.9238 176.95 93.6836C177.483 93.4375 178.081 93.3145 178.743 93.3145C179.411 93.3145 180.012 93.4375 180.545 93.6836C181.084 93.9238 181.541 94.2637 181.916 94.7031C182.297 95.1367 182.587 95.6494 182.786 96.2412C182.985 96.8271 183.085 97.4629 183.085 98.1484V98.3506C183.085 99.0361 182.985 99.6719 182.786 100.258C182.587 100.844 182.297 101.356 181.916 101.796C181.541 102.229 181.087 102.569 180.554 102.815C180.026 103.056 179.429 103.176 178.761 103.176C178.093 103.176 177.492 103.056 176.959 102.815C176.426 102.569 175.969 102.229 175.588 101.796C175.213 101.356 174.926 100.844 174.727 100.258C174.527 99.6719 174.428 99.0361 174.428 98.3506ZM176.054 98.1484V98.3506C176.054 98.8252 176.109 99.2734 176.221 99.6953C176.332 100.111 176.499 100.48 176.722 100.803C176.95 101.125 177.234 101.38 177.574 101.567C177.914 101.749 178.31 101.84 178.761 101.84C179.206 101.84 179.596 101.749 179.93 101.567C180.27 101.38 180.551 101.125 180.773 100.803C180.996 100.48 181.163 100.111 181.274 99.6953C181.392 99.2734 181.45 98.8252 181.45 98.3506V98.1484C181.45 97.6797 181.392 97.2373 181.274 96.8213C181.163 96.3994 180.993 96.0273 180.765 95.7051C180.542 95.377 180.261 95.1191 179.921 94.9316C179.587 94.7441 179.194 94.6504 178.743 94.6504C178.298 94.6504 177.905 94.7441 177.565 94.9316C177.231 95.1191 176.95 95.377 176.722 95.7051C176.499 96.0273 176.332 96.3994 176.221 96.8213C176.109 97.2373 176.054 97.6797 176.054 98.1484ZM189.589 98.8164H186.469L186.451 97.5156H189C189.504 97.5156 189.923 97.4658 190.257 97.3662C190.597 97.2666 190.852 97.1172 191.021 96.918C191.191 96.7188 191.276 96.4727 191.276 96.1797C191.276 95.9512 191.227 95.752 191.127 95.582C191.033 95.4062 190.89 95.2627 190.696 95.1514C190.503 95.0342 190.263 94.9492 189.976 94.8965C189.694 94.8379 189.363 94.8086 188.982 94.8086H186.899V103H185.273V93.4902H188.982C189.586 93.4902 190.128 93.543 190.608 93.6484C191.095 93.7539 191.508 93.915 191.848 94.1318C192.193 94.3428 192.457 94.6123 192.639 94.9404C192.82 95.2686 192.911 95.6553 192.911 96.1006C192.911 96.3877 192.853 96.6602 192.735 96.918C192.618 97.1758 192.445 97.4043 192.217 97.6035C191.988 97.8027 191.707 97.9668 191.373 98.0957C191.039 98.2188 190.655 98.2979 190.222 98.333L189.589 98.8164ZM189.589 103H185.88L186.688 101.682H189.589C190.04 101.682 190.415 101.626 190.714 101.515C191.013 101.397 191.235 101.233 191.382 101.022C191.534 100.806 191.61 100.548 191.61 100.249C191.61 99.9502 191.534 99.6953 191.382 99.4844C191.235 99.2676 191.013 99.1035 190.714 98.9922C190.415 98.875 190.04 98.8164 189.589 98.8164H187.119L187.137 97.5156H190.222L190.811 98.0078C191.332 98.0488 191.774 98.1777 192.138 98.3945C192.501 98.6113 192.776 98.8867 192.964 99.2207C193.151 99.5488 193.245 99.9062 193.245 100.293C193.245 100.738 193.16 101.131 192.99 101.471C192.826 101.811 192.586 102.095 192.27 102.323C191.953 102.546 191.569 102.716 191.118 102.833C190.667 102.944 190.157 103 189.589 103ZM201.032 101.374V96.4785C201.032 96.1035 200.956 95.7783 200.804 95.5029C200.657 95.2217 200.435 95.0049 200.136 94.8525C199.837 94.7002 199.468 94.624 199.028 94.624C198.618 94.624 198.258 94.6943 197.947 94.835C197.643 94.9756 197.402 95.1602 197.227 95.3887C197.057 95.6172 196.972 95.8633 196.972 96.127H195.346C195.346 95.7871 195.434 95.4502 195.609 95.1162C195.785 94.7822 196.037 94.4805 196.365 94.2109C196.699 93.9355 197.098 93.7188 197.561 93.5605C198.029 93.3965 198.551 93.3145 199.125 93.3145C199.816 93.3145 200.426 93.4316 200.953 93.666C201.486 93.9004 201.902 94.2549 202.201 94.7295C202.506 95.1982 202.658 95.7871 202.658 96.4961V100.926C202.658 101.242 202.685 101.579 202.737 101.937C202.796 102.294 202.881 102.602 202.992 102.859V103H201.296C201.214 102.812 201.149 102.563 201.103 102.253C201.056 101.937 201.032 101.644 201.032 101.374ZM201.313 97.2344L201.331 98.377H199.688C199.225 98.377 198.812 98.415 198.448 98.4912C198.085 98.5615 197.78 98.6699 197.534 98.8164C197.288 98.9629 197.101 99.1475 196.972 99.3701C196.843 99.5869 196.778 99.8418 196.778 100.135C196.778 100.434 196.846 100.706 196.98 100.952C197.115 101.198 197.317 101.395 197.587 101.541C197.862 101.682 198.199 101.752 198.598 101.752C199.096 101.752 199.535 101.646 199.916 101.436C200.297 101.225 200.599 100.967 200.821 100.662C201.05 100.357 201.173 100.062 201.19 99.7744L201.885 100.557C201.844 100.803 201.732 101.075 201.551 101.374C201.369 101.673 201.126 101.96 200.821 102.235C200.522 102.505 200.165 102.73 199.749 102.912C199.339 103.088 198.876 103.176 198.36 103.176C197.716 103.176 197.15 103.05 196.664 102.798C196.184 102.546 195.809 102.209 195.539 101.787C195.275 101.359 195.144 100.882 195.144 100.354C195.144 99.8447 195.243 99.3965 195.442 99.0098C195.642 98.6172 195.929 98.292 196.304 98.0342C196.679 97.7705 197.13 97.5713 197.657 97.4365C198.185 97.3018 198.773 97.2344 199.424 97.2344H201.313ZM208.951 93.4902V103H207.316V93.4902H208.951ZM212.142 93.4902V94.8086H204.188V93.4902H212.142ZM215.499 100.425L219.885 93.4902H221.52V103H219.885V96.0654L215.499 103H213.882V93.4902H215.499V100.425ZM22.834 121.612V122.931H17.8066V121.612H22.834ZM18.1494 117.49V127H16.5234V117.49H18.1494ZM24.1523 117.49V127H22.5176V117.49H24.1523ZM30.7178 127.176C30.0557 127.176 29.4551 127.064 28.916 126.842C28.3828 126.613 27.9229 126.294 27.5361 125.884C27.1553 125.474 26.8623 124.987 26.6572 124.425C26.4521 123.862 26.3496 123.247 26.3496 122.579V122.21C26.3496 121.437 26.4639 120.748 26.6924 120.145C26.9209 119.535 27.2314 119.02 27.624 118.598C28.0166 118.176 28.4619 117.856 28.96 117.64C29.458 117.423 29.9736 117.314 30.5068 117.314C31.1865 117.314 31.7725 117.432 32.2646 117.666C32.7627 117.9 33.1699 118.229 33.4863 118.65C33.8027 119.066 34.0371 119.559 34.1895 120.127C34.3418 120.689 34.418 121.305 34.418 121.973V122.702H27.3164V121.375H32.792V121.252C32.7686 120.83 32.6807 120.42 32.5283 120.021C32.3818 119.623 32.1475 119.295 31.8252 119.037C31.5029 118.779 31.0635 118.65 30.5068 118.65C30.1377 118.65 29.7979 118.729 29.4873 118.888C29.1768 119.04 28.9102 119.269 28.6875 119.573C28.4648 119.878 28.292 120.25 28.1689 120.689C28.0459 121.129 27.9844 121.636 27.9844 122.21V122.579C27.9844 123.03 28.0459 123.455 28.1689 123.854C28.2979 124.246 28.4824 124.592 28.7227 124.891C28.9688 125.189 29.2646 125.424 29.6104 125.594C29.9619 125.764 30.3604 125.849 30.8057 125.849C31.3799 125.849 31.8662 125.731 32.2646 125.497C32.6631 125.263 33.0117 124.949 33.3105 124.557L34.2949 125.339C34.0898 125.649 33.8291 125.945 33.5127 126.227C33.1963 126.508 32.8066 126.736 32.3438 126.912C31.8867 127.088 31.3447 127.176 30.7178 127.176ZM38.0303 117.49H39.6562L39.5156 121.05C39.4805 121.952 39.3779 122.731 39.208 123.388C39.0381 124.044 38.8213 124.604 38.5576 125.066C38.2939 125.523 37.998 125.907 37.6699 126.218C37.3477 126.528 37.0137 126.789 36.668 127H35.8594L35.9033 125.673L36.2373 125.664C36.4307 125.436 36.6182 125.201 36.7998 124.961C36.9814 124.715 37.1484 124.425 37.3008 124.091C37.4531 123.751 37.5791 123.338 37.6787 122.852C37.7842 122.359 37.8516 121.759 37.8809 121.05L38.0303 117.49ZM38.4346 117.49H44.1562V127H42.5303V118.993H38.4346V117.49ZM35.4902 125.664H45.3779V129.804H43.752V127H37.1162V129.804H35.4814L35.4902 125.664ZM46.749 122.351V122.148C46.749 121.463 46.8486 120.827 47.0479 120.241C47.2471 119.649 47.5342 119.137 47.9092 118.703C48.2842 118.264 48.7383 117.924 49.2715 117.684C49.8047 117.438 50.4023 117.314 51.0645 117.314C51.7324 117.314 52.333 117.438 52.8662 117.684C53.4053 117.924 53.8623 118.264 54.2373 118.703C54.6182 119.137 54.9082 119.649 55.1074 120.241C55.3066 120.827 55.4062 121.463 55.4062 122.148V122.351C55.4062 123.036 55.3066 123.672 55.1074 124.258C54.9082 124.844 54.6182 125.356 54.2373 125.796C53.8623 126.229 53.4082 126.569 52.875 126.815C52.3477 127.056 51.75 127.176 51.082 127.176C50.4141 127.176 49.8135 127.056 49.2803 126.815C48.7471 126.569 48.29 126.229 47.9092 125.796C47.5342 125.356 47.2471 124.844 47.0479 124.258C46.8486 123.672 46.749 123.036 46.749 122.351ZM48.375 122.148V122.351C48.375 122.825 48.4307 123.273 48.542 123.695C48.6533 124.111 48.8203 124.48 49.043 124.803C49.2715 125.125 49.5557 125.38 49.8955 125.567C50.2354 125.749 50.6309 125.84 51.082 125.84C51.5273 125.84 51.917 125.749 52.251 125.567C52.5908 125.38 52.8721 125.125 53.0947 124.803C53.3174 124.48 53.4844 124.111 53.5957 123.695C53.7129 123.273 53.7715 122.825 53.7715 122.351V122.148C53.7715 121.68 53.7129 121.237 53.5957 120.821C53.4844 120.399 53.3145 120.027 53.0859 119.705C52.8633 119.377 52.582 119.119 52.2422 118.932C51.9082 118.744 51.5156 118.65 51.0645 118.65C50.6191 118.65 50.2266 118.744 49.8867 118.932C49.5527 119.119 49.2715 119.377 49.043 119.705C48.8203 120.027 48.6533 120.399 48.542 120.821C48.4307 121.237 48.375 121.68 48.375 122.148ZM63.6592 117.49V118.835H59.0625V117.49H63.6592ZM65.0918 117.49V127H63.4658V117.49H65.0918ZM58.667 117.49H60.3018L60.0557 122.078C60.0146 122.787 59.9473 123.414 59.8535 123.959C59.7656 124.498 59.6426 124.961 59.4844 125.348C59.332 125.734 59.1387 126.051 58.9043 126.297C58.6758 126.537 58.4004 126.716 58.0781 126.833C57.7559 126.944 57.3838 127 56.9619 127H56.4521V125.567L56.8037 125.541C57.0557 125.523 57.2695 125.465 57.4453 125.365C57.627 125.266 57.7793 125.119 57.9023 124.926C58.0254 124.727 58.125 124.472 58.2012 124.161C58.2832 123.851 58.3447 123.481 58.3857 123.054C58.4326 122.626 58.4678 122.128 58.4912 121.56L58.667 117.49ZM69.4775 117.49V127H67.8428V117.49H69.4775ZM67.7197 114.968C67.7197 114.704 67.7988 114.481 67.957 114.3C68.1211 114.118 68.3613 114.027 68.6777 114.027C68.9883 114.027 69.2256 114.118 69.3896 114.3C69.5596 114.481 69.6445 114.704 69.6445 114.968C69.6445 115.22 69.5596 115.437 69.3896 115.618C69.2256 115.794 68.9883 115.882 68.6777 115.882C68.3613 115.882 68.1211 115.794 67.957 115.618C67.7988 115.437 67.7197 115.22 67.7197 114.968ZM73.8545 117.49V127H72.2285V117.49H73.8545ZM80.0947 117.49L75.5859 122.939H73.3096L73.0635 121.516H74.9268L78.1172 117.49H80.0947ZM78.3457 127L74.8477 122.693L75.8936 121.516L80.4111 127H78.3457ZM83.584 124.425L87.9697 117.49H89.6045V127H87.9697V120.065L83.584 127H81.9668V117.49H83.584V124.425ZM93.6914 125.066V126.376C93.6914 126.909 93.5566 127.472 93.2871 128.063C93.0176 128.661 92.6396 129.159 92.1533 129.558L91.2305 128.916C91.418 128.658 91.5762 128.395 91.7051 128.125C91.834 127.861 91.9307 127.586 91.9951 127.299C92.0654 127.018 92.1006 126.719 92.1006 126.402V125.066H93.6914ZM105.838 125.374V120.479C105.838 120.104 105.762 119.778 105.609 119.503C105.463 119.222 105.24 119.005 104.941 118.853C104.643 118.7 104.273 118.624 103.834 118.624C103.424 118.624 103.063 118.694 102.753 118.835C102.448 118.976 102.208 119.16 102.032 119.389C101.862 119.617 101.777 119.863 101.777 120.127H100.151C100.151 119.787 100.239 119.45 100.415 119.116C100.591 118.782 100.843 118.48 101.171 118.211C101.505 117.936 101.903 117.719 102.366 117.561C102.835 117.396 103.356 117.314 103.931 117.314C104.622 117.314 105.231 117.432 105.759 117.666C106.292 117.9 106.708 118.255 107.007 118.729C107.312 119.198 107.464 119.787 107.464 120.496V124.926C107.464 125.242 107.49 125.579 107.543 125.937C107.602 126.294 107.687 126.602 107.798 126.859V127H106.102C106.02 126.812 105.955 126.563 105.908 126.253C105.861 125.937 105.838 125.644 105.838 125.374ZM106.119 121.234L106.137 122.377H104.493C104.03 122.377 103.617 122.415 103.254 122.491C102.891 122.562 102.586 122.67 102.34 122.816C102.094 122.963 101.906 123.147 101.777 123.37C101.648 123.587 101.584 123.842 101.584 124.135C101.584 124.434 101.651 124.706 101.786 124.952C101.921 125.198 102.123 125.395 102.393 125.541C102.668 125.682 103.005 125.752 103.403 125.752C103.901 125.752 104.341 125.646 104.722 125.436C105.103 125.225 105.404 124.967 105.627 124.662C105.855 124.357 105.979 124.062 105.996 123.774L106.69 124.557C106.649 124.803 106.538 125.075 106.356 125.374C106.175 125.673 105.932 125.96 105.627 126.235C105.328 126.505 104.971 126.73 104.555 126.912C104.145 127.088 103.682 127.176 103.166 127.176C102.521 127.176 101.956 127.05 101.47 126.798C100.989 126.546 100.614 126.209 100.345 125.787C100.081 125.359 99.9492 124.882 99.9492 124.354C99.9492 123.845 100.049 123.396 100.248 123.01C100.447 122.617 100.734 122.292 101.109 122.034C101.484 121.771 101.936 121.571 102.463 121.437C102.99 121.302 103.579 121.234 104.229 121.234H106.119ZM120.938 121.612V122.931H115.91V121.612H120.938ZM116.253 117.49V127H114.627V117.49H116.253ZM122.256 117.49V127H120.621V117.49H122.256ZM128.821 127.176C128.159 127.176 127.559 127.064 127.02 126.842C126.486 126.613 126.026 126.294 125.64 125.884C125.259 125.474 124.966 124.987 124.761 124.425C124.556 123.862 124.453 123.247 124.453 122.579V122.21C124.453 121.437 124.567 120.748 124.796 120.145C125.024 119.535 125.335 119.02 125.728 118.598C126.12 118.176 126.565 117.856 127.063 117.64C127.562 117.423 128.077 117.314 128.61 117.314C129.29 117.314 129.876 117.432 130.368 117.666C130.866 117.9 131.273 118.229 131.59 118.65C131.906 119.066 132.141 119.559 132.293 120.127C132.445 120.689 132.521 121.305 132.521 121.973V122.702H125.42V121.375H130.896V121.252C130.872 120.83 130.784 120.42 130.632 120.021C130.485 119.623 130.251 119.295 129.929 119.037C129.606 118.779 129.167 118.65 128.61 118.65C128.241 118.65 127.901 118.729 127.591 118.888C127.28 119.04 127.014 119.269 126.791 119.573C126.568 119.878 126.396 120.25 126.272 120.689C126.149 121.129 126.088 121.636 126.088 122.21V122.579C126.088 123.03 126.149 123.455 126.272 123.854C126.401 124.246 126.586 124.592 126.826 124.891C127.072 125.189 127.368 125.424 127.714 125.594C128.065 125.764 128.464 125.849 128.909 125.849C129.483 125.849 129.97 125.731 130.368 125.497C130.767 125.263 131.115 124.949 131.414 124.557L132.398 125.339C132.193 125.649 131.933 125.945 131.616 126.227C131.3 126.508 130.91 126.736 130.447 126.912C129.99 127.088 129.448 127.176 128.821 127.176ZM145.222 117.49V118.835H140.414V117.49H145.222ZM140.651 117.49V127H139.025V117.49H140.651ZM146.663 117.49V127H145.028V117.49H146.663ZM153.22 127.176C152.558 127.176 151.957 127.064 151.418 126.842C150.885 126.613 150.425 126.294 150.038 125.884C149.657 125.474 149.364 124.987 149.159 124.425C148.954 123.862 148.852 123.247 148.852 122.579V122.21C148.852 121.437 148.966 120.748 149.194 120.145C149.423 119.535 149.733 119.02 150.126 118.598C150.519 118.176 150.964 117.856 151.462 117.64C151.96 117.423 152.476 117.314 153.009 117.314C153.688 117.314 154.274 117.432 154.767 117.666C155.265 117.9 155.672 118.229 155.988 118.65C156.305 119.066 156.539 119.559 156.691 120.127C156.844 120.689 156.92 121.305 156.92 121.973V122.702H149.818V121.375H155.294V121.252C155.271 120.83 155.183 120.42 155.03 120.021C154.884 119.623 154.649 119.295 154.327 119.037C154.005 118.779 153.565 118.65 153.009 118.65C152.64 118.65 152.3 118.729 151.989 118.888C151.679 119.04 151.412 119.269 151.189 119.573C150.967 119.878 150.794 120.25 150.671 120.689C150.548 121.129 150.486 121.636 150.486 122.21V122.579C150.486 123.03 150.548 123.455 150.671 123.854C150.8 124.246 150.984 124.592 151.225 124.891C151.471 125.189 151.767 125.424 152.112 125.594C152.464 125.764 152.862 125.849 153.308 125.849C153.882 125.849 154.368 125.731 154.767 125.497C155.165 125.263 155.514 124.949 155.812 124.557L156.797 125.339C156.592 125.649 156.331 125.945 156.015 126.227C155.698 126.508 155.309 126.736 154.846 126.912C154.389 127.088 153.847 127.176 153.22 127.176ZM160.444 119.318V130.656H158.81V117.49H160.304L160.444 119.318ZM166.852 122.166V122.351C166.852 123.042 166.77 123.684 166.605 124.275C166.441 124.861 166.201 125.371 165.885 125.805C165.574 126.238 165.19 126.575 164.733 126.815C164.276 127.056 163.752 127.176 163.16 127.176C162.557 127.176 162.023 127.076 161.561 126.877C161.098 126.678 160.705 126.388 160.383 126.007C160.061 125.626 159.803 125.169 159.609 124.636C159.422 124.103 159.293 123.502 159.223 122.834V121.85C159.293 121.146 159.425 120.517 159.618 119.96C159.812 119.403 160.066 118.929 160.383 118.536C160.705 118.138 161.095 117.836 161.552 117.631C162.009 117.42 162.536 117.314 163.134 117.314C163.731 117.314 164.262 117.432 164.725 117.666C165.188 117.895 165.577 118.223 165.894 118.65C166.21 119.078 166.447 119.591 166.605 120.188C166.77 120.78 166.852 121.439 166.852 122.166ZM165.217 122.351V122.166C165.217 121.691 165.167 121.246 165.067 120.83C164.968 120.408 164.812 120.039 164.602 119.723C164.396 119.4 164.133 119.148 163.811 118.967C163.488 118.779 163.104 118.686 162.659 118.686C162.249 118.686 161.892 118.756 161.587 118.896C161.288 119.037 161.033 119.228 160.822 119.468C160.611 119.702 160.438 119.972 160.304 120.276C160.175 120.575 160.078 120.886 160.014 121.208V123.484C160.131 123.895 160.295 124.281 160.506 124.645C160.717 125.002 160.998 125.292 161.35 125.515C161.701 125.731 162.144 125.84 162.677 125.84C163.116 125.84 163.494 125.749 163.811 125.567C164.133 125.38 164.396 125.125 164.602 124.803C164.812 124.48 164.968 124.111 165.067 123.695C165.167 123.273 165.217 122.825 165.217 122.351ZM172.872 127.176C172.21 127.176 171.609 127.064 171.07 126.842C170.537 126.613 170.077 126.294 169.69 125.884C169.31 125.474 169.017 124.987 168.812 124.425C168.606 123.862 168.504 123.247 168.504 122.579V122.21C168.504 121.437 168.618 120.748 168.847 120.145C169.075 119.535 169.386 119.02 169.778 118.598C170.171 118.176 170.616 117.856 171.114 117.64C171.612 117.423 172.128 117.314 172.661 117.314C173.341 117.314 173.927 117.432 174.419 117.666C174.917 117.9 175.324 118.229 175.641 118.65C175.957 119.066 176.191 119.559 176.344 120.127C176.496 120.689 176.572 121.305 176.572 121.973V122.702H169.471V121.375H174.946V121.252C174.923 120.83 174.835 120.42 174.683 120.021C174.536 119.623 174.302 119.295 173.979 119.037C173.657 118.779 173.218 118.65 172.661 118.65C172.292 118.65 171.952 118.729 171.642 118.888C171.331 119.04 171.064 119.269 170.842 119.573C170.619 119.878 170.446 120.25 170.323 120.689C170.2 121.129 170.139 121.636 170.139 122.21V122.579C170.139 123.03 170.2 123.455 170.323 123.854C170.452 124.246 170.637 124.592 170.877 124.891C171.123 125.189 171.419 125.424 171.765 125.594C172.116 125.764 172.515 125.849 172.96 125.849C173.534 125.849 174.021 125.731 174.419 125.497C174.817 125.263 175.166 124.949 175.465 124.557L176.449 125.339C176.244 125.649 175.983 125.945 175.667 126.227C175.351 126.508 174.961 126.736 174.498 126.912C174.041 127.088 173.499 127.176 172.872 127.176ZM180.097 119.318V130.656H178.462V117.49H179.956L180.097 119.318ZM186.504 122.166V122.351C186.504 123.042 186.422 123.684 186.258 124.275C186.094 124.861 185.854 125.371 185.537 125.805C185.227 126.238 184.843 126.575 184.386 126.815C183.929 127.056 183.404 127.176 182.812 127.176C182.209 127.176 181.676 127.076 181.213 126.877C180.75 126.678 180.357 126.388 180.035 126.007C179.713 125.626 179.455 125.169 179.262 124.636C179.074 124.103 178.945 123.502 178.875 122.834V121.85C178.945 121.146 179.077 120.517 179.271 119.96C179.464 119.403 179.719 118.929 180.035 118.536C180.357 118.138 180.747 117.836 181.204 117.631C181.661 117.42 182.188 117.314 182.786 117.314C183.384 117.314 183.914 117.432 184.377 117.666C184.84 117.895 185.229 118.223 185.546 118.65C185.862 119.078 186.1 119.591 186.258 120.188C186.422 120.78 186.504 121.439 186.504 122.166ZM184.869 122.351V122.166C184.869 121.691 184.819 121.246 184.72 120.83C184.62 120.408 184.465 120.039 184.254 119.723C184.049 119.4 183.785 119.148 183.463 118.967C183.141 118.779 182.757 118.686 182.312 118.686C181.901 118.686 181.544 118.756 181.239 118.896C180.94 119.037 180.686 119.228 180.475 119.468C180.264 119.702 180.091 119.972 179.956 120.276C179.827 120.575 179.73 120.886 179.666 121.208V123.484C179.783 123.895 179.947 124.281 180.158 124.645C180.369 125.002 180.65 125.292 181.002 125.515C181.354 125.731 181.796 125.84 182.329 125.84C182.769 125.84 183.146 125.749 183.463 125.567C183.785 125.38 184.049 125.125 184.254 124.803C184.465 124.48 184.62 124.111 184.72 123.695C184.819 123.273 184.869 122.825 184.869 122.351ZM188.147 122.351V122.148C188.147 121.463 188.247 120.827 188.446 120.241C188.646 119.649 188.933 119.137 189.308 118.703C189.683 118.264 190.137 117.924 190.67 117.684C191.203 117.438 191.801 117.314 192.463 117.314C193.131 117.314 193.731 117.438 194.265 117.684C194.804 117.924 195.261 118.264 195.636 118.703C196.017 119.137 196.307 119.649 196.506 120.241C196.705 120.827 196.805 121.463 196.805 122.148V122.351C196.805 123.036 196.705 123.672 196.506 124.258C196.307 124.844 196.017 125.356 195.636 125.796C195.261 126.229 194.807 126.569 194.273 126.815C193.746 127.056 193.148 127.176 192.48 127.176C191.812 127.176 191.212 127.056 190.679 126.815C190.146 126.569 189.688 126.229 189.308 125.796C188.933 125.356 188.646 124.844 188.446 124.258C188.247 123.672 188.147 123.036 188.147 122.351ZM189.773 122.148V122.351C189.773 122.825 189.829 123.273 189.94 123.695C190.052 124.111 190.219 124.48 190.441 124.803C190.67 125.125 190.954 125.38 191.294 125.567C191.634 125.749 192.029 125.84 192.48 125.84C192.926 125.84 193.315 125.749 193.649 125.567C193.989 125.38 194.271 125.125 194.493 124.803C194.716 124.48 194.883 124.111 194.994 123.695C195.111 123.273 195.17 122.825 195.17 122.351V122.148C195.17 121.68 195.111 121.237 194.994 120.821C194.883 120.399 194.713 120.027 194.484 119.705C194.262 119.377 193.98 119.119 193.641 118.932C193.307 118.744 192.914 118.65 192.463 118.65C192.018 118.65 191.625 118.744 191.285 118.932C190.951 119.119 190.67 119.377 190.441 119.705C190.219 120.027 190.052 120.399 189.94 120.821C189.829 121.237 189.773 121.68 189.773 122.148ZM204.943 113.351H206.279C206.279 113.925 206.191 114.382 206.016 114.722C205.84 115.056 205.6 115.313 205.295 115.495C204.996 115.677 204.656 115.814 204.275 115.908C203.9 116.002 203.511 116.093 203.106 116.181C202.603 116.286 202.134 116.453 201.7 116.682C201.272 116.904 200.903 117.221 200.593 117.631C200.288 118.041 200.062 118.574 199.916 119.23C199.775 119.887 199.737 120.698 199.802 121.665V122.474H198.466V121.665C198.466 120.581 198.568 119.635 198.773 118.826C198.984 118.018 199.28 117.335 199.661 116.778C200.042 116.222 200.493 115.779 201.015 115.451C201.542 115.123 202.122 114.897 202.755 114.774C203.212 114.687 203.604 114.593 203.933 114.493C204.261 114.388 204.51 114.247 204.68 114.071C204.855 113.896 204.943 113.655 204.943 113.351ZM203.019 118.035C203.64 118.035 204.193 118.144 204.68 118.36C205.166 118.577 205.579 118.879 205.919 119.266C206.259 119.652 206.517 120.109 206.692 120.637C206.874 121.158 206.965 121.727 206.965 122.342V122.535C206.965 123.197 206.868 123.812 206.675 124.381C206.487 124.943 206.209 125.436 205.84 125.857C205.477 126.273 205.031 126.599 204.504 126.833C203.982 127.067 203.388 127.185 202.72 127.185C202.052 127.185 201.454 127.067 200.927 126.833C200.405 126.599 199.96 126.273 199.591 125.857C199.222 125.436 198.94 124.943 198.747 124.381C198.56 123.812 198.466 123.197 198.466 122.535V122.342C198.466 122.195 198.492 122.052 198.545 121.911C198.598 121.771 198.662 121.627 198.738 121.48C198.82 121.334 198.894 121.179 198.958 121.015C199.175 120.487 199.471 119.998 199.846 119.547C200.227 119.096 200.681 118.732 201.208 118.457C201.741 118.176 202.345 118.035 203.019 118.035ZM202.702 119.362C202.104 119.362 201.612 119.5 201.226 119.775C200.845 120.051 200.561 120.417 200.373 120.874C200.186 121.325 200.092 121.814 200.092 122.342V122.535C200.092 122.98 200.145 123.402 200.25 123.801C200.355 124.199 200.514 124.554 200.725 124.864C200.941 125.169 201.214 125.409 201.542 125.585C201.876 125.761 202.269 125.849 202.72 125.849C203.171 125.849 203.561 125.761 203.889 125.585C204.217 125.409 204.486 125.169 204.697 124.864C204.908 124.554 205.066 124.199 205.172 123.801C205.277 123.402 205.33 122.98 205.33 122.535V122.342C205.33 121.943 205.277 121.565 205.172 121.208C205.066 120.851 204.905 120.534 204.688 120.259C204.478 119.983 204.205 119.767 203.871 119.608C203.543 119.444 203.153 119.362 202.702 119.362ZM210.41 124.425L214.796 117.49H216.431V127H214.796V120.065L210.41 127H208.793V117.49H210.41V124.425ZM222.917 117.49V127H221.282V117.49H222.917ZM226.107 117.49V118.809H218.153V117.49H226.107ZM229.465 124.425L233.851 117.49H235.485V127H233.851V120.065L229.465 127H227.848V117.49H229.465V124.425Z" fill="black"/>
</svg>
